<svg width="132" height="44" viewBox="0 0 132 44" fill="none" xmlns="http://www.w3.org/2000/svg">
<g clip-path="url(#clip0_430_409)">
<path d="M1.11133 38.232V23.6605H4.95529V26.2313H5.12572C5.42871 25.3775 5.93362 24.704 6.64056 24.2107C7.3475 23.7174 8.19332 23.4707 9.17797 23.4707C10.1753 23.4707 11.0242 23.7205 11.7249 24.2202C12.4255 24.7135 12.8925 25.3839 13.1261 26.2313H13.2776C13.5742 25.3965 14.1107 24.7293 14.8871 24.2297C15.6698 23.7237 16.5945 23.4707 17.6612 23.4707C19.0183 23.4707 20.1197 23.904 20.9655 24.7704C21.8176 25.6305 22.2437 26.8511 22.2437 28.4323V38.232H18.2198V29.2292C18.2198 28.4196 18.0052 27.8125 17.576 27.4077C17.1468 27.0029 16.6103 26.8006 15.9664 26.8006C15.2343 26.8006 14.663 27.0346 14.2528 27.5026C13.8425 27.9643 13.6374 28.5746 13.6374 29.3335V38.232H9.72712V29.1438C9.72712 28.4291 9.52198 27.8599 9.11171 27.4362C8.70771 27.0124 8.17436 26.8006 7.51161 26.8006C7.06347 26.8006 6.65952 26.9144 6.29975 27.1421C5.94626 27.3634 5.66539 27.6765 5.45709 28.0813C5.2488 28.4797 5.14463 28.9477 5.14463 29.4853V38.232H1.11133Z" fill="#6B7175"/>
<path d="M31.9995 38.5167C30.5289 38.5167 29.257 38.2036 28.1839 37.5775C27.1172 36.945 26.2935 36.0659 25.7128 34.9402C25.1321 33.8081 24.8418 32.4958 24.8418 31.0032C24.8418 29.4979 25.1321 28.1824 25.7128 27.0567C26.2935 25.9246 27.1172 25.0455 28.1839 24.4194C29.257 23.7869 30.5289 23.4707 31.9995 23.4707C33.4702 23.4707 34.7389 23.7869 35.8056 24.4194C36.8787 25.0455 37.7055 25.9246 38.2862 27.0567C38.8669 28.1824 39.1573 29.4979 39.1573 31.0032C39.1573 32.4958 38.8669 33.8081 38.2862 34.9402C37.7055 36.0659 36.8787 36.945 35.8056 37.5775C34.7389 38.2036 33.4702 38.5167 31.9995 38.5167ZM32.0185 35.3861C32.6875 35.3861 33.2461 35.1963 33.6943 34.8168C34.1424 34.4311 34.4801 33.9061 34.7073 33.242C34.9409 32.578 35.0577 31.8222 35.0577 30.9747C35.0577 30.1272 34.9409 29.3715 34.7073 28.7074C34.4801 28.0433 34.1424 27.5184 33.6943 27.1326C33.2461 26.7468 32.6875 26.5539 32.0185 26.5539C31.3431 26.5539 30.775 26.7468 30.3142 27.1326C29.8598 27.5184 29.5158 28.0433 29.2822 28.7074C29.055 29.3715 28.9414 30.1272 28.9414 30.9747C28.9414 31.8222 29.055 32.578 29.2822 33.242C29.5158 33.9061 29.8598 34.4311 30.3142 34.8168C30.775 35.1963 31.3431 35.3861 32.0185 35.3861Z" fill="#6B7175"/>
<path d="M53.8805 27.8157L50.188 28.0433C50.1249 27.7271 49.9892 27.4425 49.7809 27.1895C49.5726 26.9302 49.298 26.7247 48.9572 26.5729C48.6226 26.4148 48.2219 26.3357 47.7548 26.3357C47.1299 26.3357 46.6028 26.4685 46.1736 26.7342C45.7444 26.9935 45.5298 27.3413 45.5298 27.7777C45.5298 28.1255 45.6687 28.4196 45.9464 28.6599C46.2241 28.9003 46.7007 29.0932 47.376 29.2386L50.0081 29.7699C51.422 30.0608 52.4759 30.5288 53.1706 31.1739C53.8647 31.819 54.2118 32.6665 54.2118 33.7164C54.2118 34.6714 53.931 35.5094 53.3693 36.2303C52.8138 36.9513 52.0499 37.5142 51.0779 37.919C50.1123 38.3174 48.9982 38.5167 47.7359 38.5167C45.8107 38.5167 44.2769 38.115 43.1345 37.3118C41.9983 36.5023 41.3324 35.4019 41.1367 34.0104L45.1038 33.8017C45.2237 34.3899 45.514 34.839 45.9748 35.1489C46.4356 35.4525 47.0258 35.6042 47.7453 35.6042C48.4522 35.6042 49.0203 35.4683 49.4495 35.1963C49.8851 34.918 50.1059 34.5607 50.1123 34.1243C50.1059 33.7575 49.9513 33.4571 49.6483 33.223C49.3454 32.9827 48.8783 32.7993 48.2471 32.6728L45.7286 32.17C44.3084 31.8854 43.2512 31.3921 42.5569 30.6901C41.8689 29.9881 41.5249 29.0932 41.5249 28.0054C41.5249 27.0693 41.7773 26.263 42.2823 25.5863C42.7936 24.9096 43.51 24.3878 44.4315 24.021C45.3594 23.6541 46.4451 23.4707 47.6885 23.4707C49.5252 23.4707 50.9709 23.8597 52.0249 24.6376C53.085 25.4155 53.7037 26.4748 53.8805 27.8157Z" fill="#6B7175"/>
<path d="M56.752 38.2321V23.6605H60.6625V26.2029H60.8139C61.0789 25.2985 61.5238 24.6155 62.1487 24.1538C62.774 23.6858 63.4931 23.4518 64.3076 23.4518C64.5094 23.4518 64.7275 23.4644 64.9609 23.4897C65.1943 23.515 65.3997 23.5498 65.5761 23.5941V27.18C65.387 27.1231 65.125 27.0725 64.7902 27.0283C64.4559 26.984 64.1496 26.9619 63.8718 26.9619C63.2786 26.9619 62.7485 27.0915 62.2817 27.3508C61.8204 27.6038 61.4545 27.9579 61.1834 28.4133C60.9179 28.8687 60.7853 29.3936 60.7853 29.9881V38.2321H56.752Z" fill="#6B7175"/>
<path d="M73.6111 38.5167C72.1153 38.5167 70.8274 38.2131 69.748 37.6059C68.6751 36.9925 67.848 36.126 67.2675 35.0066C66.687 33.8808 66.3965 32.5495 66.3965 31.0127C66.3965 29.5137 66.687 28.1982 67.2675 27.0662C67.848 25.9341 68.6655 25.0518 69.7199 24.4194C70.78 23.7869 72.0236 23.4707 73.4501 23.4707C74.4092 23.4707 75.3027 23.6257 76.1293 23.9356C76.9626 24.2392 77.6883 24.6977 78.3071 25.3111C78.9319 25.9246 79.4181 26.6962 79.7652 27.6259C80.1122 28.5493 80.286 29.6308 80.286 30.8704V31.9803H68.006V29.4758H76.4891C76.4891 28.894 76.3627 28.3785 76.1105 27.9295C75.8582 27.4804 75.5075 27.1295 75.0596 26.8765C74.6177 26.6172 74.1034 26.4875 73.5163 26.4875C72.9042 26.4875 72.3615 26.6298 71.888 26.9144C71.4206 27.1927 71.0547 27.569 70.7897 28.0433C70.5247 28.5113 70.3886 29.0331 70.3825 29.6087V31.9898C70.3825 32.7108 70.515 33.3338 70.78 33.8587C71.0516 34.3836 71.4334 34.7884 71.9257 35.073C72.418 35.3576 73.0021 35.4999 73.6774 35.4999C74.1254 35.4999 74.5356 35.4367 74.9082 35.3101C75.2802 35.1837 75.5993 34.9939 75.8643 34.7409C76.1293 34.4879 76.3316 34.1781 76.4703 33.8113L80.2004 34.0579C80.0113 34.956 79.623 35.7402 79.0359 36.4106C78.4554 37.0747 77.7041 37.5933 76.7827 37.9664C75.8674 38.3332 74.8103 38.5167 73.6111 38.5167Z" fill="#6B7175"/>
<path d="M89.4702 44C88.164 44 87.0438 43.8197 86.1096 43.4592C85.1815 43.105 84.443 42.6212 83.8941 42.0078C83.3447 41.3943 82.9879 40.7049 82.8238 39.9396L86.5545 39.4369C86.6681 39.7278 86.8481 39.9998 87.0942 40.2527C87.3404 40.5057 87.665 40.7081 88.0692 40.8599C88.4795 41.018 88.9779 41.0971 89.565 41.0971C90.4426 41.0971 91.1653 40.882 91.7331 40.4519C92.3074 40.0282 92.5949 39.3167 92.5949 38.3174V35.6516H92.4247C92.2478 36.0564 91.9828 36.439 91.6291 36.7996C91.2754 37.1601 90.8213 37.4542 90.2658 37.6818C89.7103 37.9095 89.0477 38.0233 88.2776 38.0233C87.1854 38.0233 86.1916 37.7703 85.2951 37.2644C84.4053 36.7521 83.6948 35.9711 83.1648 34.9212C82.6409 33.865 82.3789 32.5306 82.3789 30.9178C82.3789 29.2671 82.6475 27.8884 83.1837 26.7816C83.7203 25.6748 84.4333 24.8463 85.3237 24.2961C86.2196 23.7459 87.2012 23.4707 88.2679 23.4707C89.0824 23.4707 89.7638 23.6099 90.3132 23.8881C90.8621 24.1601 91.3039 24.5016 91.6388 24.9127C91.9792 25.3175 92.2412 25.7159 92.4247 26.108H92.576V23.6605H96.5809V38.3744C96.5809 39.6139 96.2776 40.6512 95.6717 41.486C95.0662 42.3208 94.2263 42.9469 93.1535 43.3644C92.0868 43.7881 90.859 44 89.4702 44ZM89.5558 34.9876C90.2056 34.9876 90.755 34.8263 91.203 34.5038C91.6576 34.1749 92.0047 33.7069 92.2448 33.0997C92.4909 32.4863 92.6137 31.7526 92.6137 30.8988C92.6137 30.045 92.494 29.3051 92.2539 28.6789C92.0144 28.0465 91.6668 27.5564 91.2127 27.2085C90.7581 26.8606 90.2056 26.6867 89.5558 26.6867C88.8928 26.6867 88.3342 26.867 87.8796 27.2275C87.4255 27.5816 87.0815 28.0749 86.8481 28.7074C86.6141 29.3398 86.4974 30.0703 86.4974 30.8988C86.4974 31.74 86.6141 32.4673 86.8481 33.0808C87.0876 33.6879 87.4316 34.1591 87.8796 34.4943C88.3342 34.8232 88.8928 34.9876 89.5558 34.9876Z" fill="#6B7175"/>
<path d="M102.147 38.4787C101.522 38.4787 100.986 38.2574 100.538 37.8147C100.096 37.3657 99.875 36.8281 99.875 36.202C99.875 35.5822 100.096 35.0509 100.538 34.6082C100.986 34.1655 101.522 33.9441 102.147 33.9441C102.753 33.9441 103.284 34.1655 103.738 34.6082C104.192 35.0509 104.42 35.5822 104.42 36.202C104.42 36.6194 104.312 37.002 104.097 37.3498C103.889 37.6914 103.615 37.9665 103.274 38.1752C102.933 38.3775 102.557 38.4787 102.147 38.4787Z" fill="#6B7175"/>
<path d="M107.73 38.2321V23.6605H111.641V26.2029H111.792C112.057 25.2985 112.502 24.6155 113.127 24.1538C113.752 23.6858 114.472 23.4518 115.286 23.4518C115.488 23.4518 115.706 23.4644 115.939 23.4897C116.173 23.515 116.378 23.5498 116.555 23.5941V27.18C116.365 27.1231 116.104 27.0725 115.769 27.0283C115.434 26.984 115.128 26.9619 114.85 26.9619C114.257 26.9619 113.727 27.0915 113.26 27.3508C112.799 27.6038 112.433 27.9579 112.161 28.4133C111.896 28.8687 111.764 29.3936 111.764 29.9881V38.2321H107.73Z" fill="#6B7175"/>
<path d="M127.966 32.0278V23.6605H132V38.2321H128.127V35.5853H127.976C127.648 36.4391 127.101 37.1253 126.338 37.6439C125.581 38.1625 124.656 38.4219 123.564 38.4219C122.592 38.4219 121.736 38.2005 120.998 37.7578C120.259 37.3151 119.682 36.6857 119.265 35.8699C118.855 35.0541 118.647 34.0769 118.641 32.9385V23.6605H122.674V32.2176C122.68 33.0776 122.91 33.7576 123.365 34.2572C123.819 34.7568 124.429 35.0066 125.192 35.0066C125.678 35.0066 126.133 34.8959 126.556 34.6746C126.979 34.4469 127.32 34.1117 127.578 33.669C127.843 33.2263 127.973 32.6792 127.966 32.0278Z" fill="#6B7175"/>
<path d="M3.95992 19.3711L0 4.84277H4.08307L6.33778 14.604H6.4704L8.81979 4.84277H12.8271L15.2144 14.5472H15.3376L17.5544 4.84277H21.628L17.6775 19.3711H13.405L10.904 10.2341H10.724L8.22299 19.3711H3.95992Z" fill="#6B7175"/>
<path d="M30.0469 19.6548C28.5501 19.6548 27.2617 19.3521 26.1817 18.7468C25.1081 18.1351 24.2807 17.2712 23.6997 16.1551C23.1187 15.0327 22.8281 13.7054 22.8281 12.1731C22.8281 10.6787 23.1187 9.36705 23.6997 8.23835C24.2807 7.10965 25.0986 6.23001 26.1534 5.59943C27.2143 4.96884 28.4586 4.65356 29.8859 4.65356C30.8459 4.65356 31.7396 4.80805 32.5669 5.11701C33.4006 5.41969 34.1269 5.87688 34.7458 6.48853C35.371 7.10018 35.8573 7.86947 36.2047 8.79638C36.552 9.71701 36.7257 10.7953 36.7257 12.0312V13.1379H24.4386V10.6408H32.9269C32.9269 10.0607 32.8005 9.54679 32.548 9.09906C32.2953 8.65139 31.9448 8.30138 31.4964 8.04915C31.0543 7.79063 30.5396 7.66139 29.9522 7.66139C29.3396 7.66139 28.7965 7.80326 28.3227 8.08701C27.8554 8.36447 27.4891 8.73965 27.2238 9.21259C26.9586 9.6792 26.8228 10.1994 26.8165 10.7732V13.1473C26.8165 13.8662 26.9491 14.4873 27.2143 15.0107C27.4859 15.534 27.868 15.9376 28.3607 16.2213C28.8533 16.5051 29.4375 16.647 30.1133 16.647C30.5616 16.647 30.9722 16.5839 31.3448 16.4578C31.7174 16.3317 32.0364 16.1425 32.3016 15.8903C32.5669 15.6381 32.769 15.3291 32.9079 14.9633L36.6405 15.2093C36.451 16.1047 36.0626 16.8866 35.4753 17.555C34.8942 18.2171 34.1426 18.7341 33.2205 19.1062C32.3048 19.4719 31.2469 19.6548 30.0469 19.6548Z" fill="#6B7175"/>
<path d="M43.3951 0V19.3711H39.3594V0H43.3951Z" fill="#6B7175"/>
<path d="M53.203 19.6548C51.7123 19.6548 50.4304 19.3395 49.3567 18.7089C48.2894 18.072 47.4683 17.1893 46.8936 16.0605C46.3252 14.9318 46.041 13.6329 46.041 12.1636C46.041 10.6755 46.3284 9.37023 46.9031 8.24782C47.4841 7.11906 48.3083 6.23942 49.3757 5.60889C50.443 4.972 51.7123 4.65356 53.1841 4.65356C54.4537 4.65356 55.5653 4.88372 56.5188 5.34402C57.4724 5.80433 58.2272 6.45067 58.7827 7.28304C59.3387 8.11541 59.645 9.09277 59.7016 10.2152H55.8935C55.7859 9.49 55.5021 8.90674 55.0408 8.46536C54.5862 8.01764 53.9894 7.7938 53.2504 7.7938C52.6251 7.7938 52.0787 7.96407 51.6114 8.30456C51.1501 8.63875 50.7904 9.12746 50.5315 9.77063C50.2725 10.4138 50.143 11.1925 50.143 12.1069C50.143 13.0338 50.2693 13.8221 50.522 14.4715C50.7809 15.121 51.144 15.616 51.6114 15.9565C52.0787 16.297 52.6251 16.4673 53.2504 16.4673C53.7111 16.4673 54.125 16.3727 54.4914 16.1835C54.864 15.9943 55.1703 15.72 55.4103 15.3606C55.6565 14.9949 55.8175 14.5567 55.8935 14.0459H59.7016C59.6384 15.1557 59.3357 16.1331 58.7924 16.978C58.2557 17.8167 57.5136 18.4725 56.5662 18.9454C55.6188 19.4183 54.4975 19.6548 53.203 19.6548Z" fill="#6B7175"/>
<path d="M68.8609 19.6548C67.3895 19.6548 66.1169 19.3427 65.0431 18.7184C63.9758 18.0878 63.1517 17.2113 62.5707 16.0889C61.9897 14.9602 61.6992 13.6518 61.6992 12.1636C61.6992 10.6629 61.9897 9.3513 62.5707 8.22889C63.1517 7.10018 63.9758 6.22366 65.0431 5.59943C66.1169 4.96884 67.3895 4.65356 68.8609 4.65356C70.3327 4.65356 71.6023 4.96884 72.6695 5.59943C73.7433 6.22366 74.5705 7.10018 75.1515 8.22889C75.7325 9.3513 76.023 10.6629 76.023 12.1636C76.023 13.6518 75.7325 14.9602 75.1515 16.0889C74.5705 17.2113 73.7433 18.0878 72.6695 18.7184C71.6023 19.3427 70.3327 19.6548 68.8609 19.6548ZM68.8802 16.5335C69.5494 16.5335 70.1085 16.3443 70.557 15.966C71.0055 15.5813 71.3434 15.0579 71.5707 14.3958C71.8041 13.7337 71.9208 12.9802 71.9208 12.1353C71.9208 11.2903 71.8041 10.5368 71.5707 9.87469C71.3434 9.21259 71.0055 8.6892 70.557 8.30456C70.1085 7.91992 69.5494 7.72759 68.8802 7.72759C68.2044 7.72759 67.6357 7.91992 67.1749 8.30456C66.7203 8.6892 66.3758 9.21259 66.1424 9.87469C65.9151 10.5368 65.8009 11.2903 65.8009 12.1353C65.8009 12.9802 65.9151 13.7337 66.1424 14.3958C66.3758 15.0579 66.7203 15.5813 67.1749 15.966C67.6357 16.3443 68.2044 16.5335 68.8802 16.5335Z" fill="#6B7175"/>
<path d="M78.6465 19.371V4.84273H82.4928V7.40598H82.6631C82.9663 6.55474 83.4719 5.88318 84.1788 5.39135C84.8862 4.89948 85.7327 4.65356 86.7179 4.65356C87.7158 4.65356 88.5653 4.90264 89.2661 5.40076C89.9674 5.89264 90.4347 6.56103 90.6682 7.40598H90.82C91.1167 6.57367 91.6533 5.9084 92.4305 5.41023C93.2134 4.90579 94.1389 4.65356 95.2061 4.65356C96.5638 4.65356 97.6662 5.0855 98.5122 5.94938C99.3649 6.80697 99.7915 8.02393 99.7915 9.60036V19.371H95.7652V10.3949C95.7652 9.58777 95.5501 8.98241 95.121 8.57884C94.6914 8.17527 94.1547 7.97348 93.5105 7.97348C92.7776 7.97348 92.2063 8.20684 91.7955 8.67344C91.3853 9.13375 91.1799 9.74223 91.1799 10.4989V19.371H87.2673V10.3098C87.2673 9.59724 87.0619 9.02969 86.6516 8.60724C86.2474 8.18473 85.7138 7.97348 85.0508 7.97348C84.6023 7.97348 84.1981 8.08701 83.8378 8.31402C83.4841 8.53474 83.2033 8.84683 82.9948 9.2504C82.7864 9.64768 82.6819 10.1143 82.6819 10.6503V19.371H78.6465Z" fill="#6B7175"/>
<path d="M109.611 19.6548C108.114 19.6548 106.826 19.3521 105.746 18.7468C104.673 18.1351 103.845 17.2712 103.264 16.1551C102.683 15.0327 102.393 13.7054 102.393 12.1731C102.393 10.6787 102.683 9.36705 103.264 8.23835C103.845 7.10965 104.663 6.23001 105.718 5.59943C106.779 4.96884 108.023 4.65356 109.45 4.65356C110.41 4.65356 111.304 4.80805 112.132 5.11701C112.965 5.41969 113.692 5.87688 114.31 6.48853C114.936 7.10018 115.422 7.86947 115.769 8.79638C116.116 9.71701 116.29 10.7953 116.29 12.0312V13.1379H104.003V10.6408H112.491C112.491 10.0607 112.365 9.54679 112.113 9.09906C111.86 8.65139 111.509 8.30138 111.061 8.04915C110.619 7.79063 110.104 7.66139 109.516 7.66139C108.904 7.66139 108.361 7.80326 107.887 8.08701C107.42 8.36447 107.053 8.73965 106.788 9.21259C106.523 9.6792 106.387 10.1994 106.381 10.7732V13.1473C106.381 13.8662 106.514 14.4873 106.779 15.0107C107.05 15.534 107.433 15.9376 107.925 16.2213C108.418 16.5051 109.002 16.647 109.678 16.647C110.126 16.647 110.537 16.5839 110.909 16.4578C111.282 16.3317 111.601 16.1425 111.866 15.8903C112.132 15.6381 112.333 15.3291 112.472 14.9633L116.205 15.2093C116.016 16.1047 115.627 16.8866 115.04 17.555C114.459 18.2171 113.707 18.7341 112.785 19.1062C111.869 19.4719 110.812 19.6548 109.611 19.6548Z" fill="#6B7175"/>
<path d="M121.281 19.617C120.656 19.617 120.119 19.3963 119.671 18.9549C119.228 18.5072 119.008 17.9712 119.008 17.3469C119.008 16.729 119.228 16.1993 119.671 15.7579C120.119 15.3165 120.656 15.0958 121.281 15.0958C121.887 15.0958 122.418 15.3165 122.873 15.7579C123.328 16.1993 123.555 16.729 123.555 17.3469C123.555 17.7631 123.447 18.1446 123.233 18.4914C123.024 18.8319 122.75 19.1062 122.409 19.3143C122.068 19.5161 121.692 19.617 121.281 19.617Z" fill="#6B7175"/>
</g>
<defs>
<clipPath id="clip0_430_409">
<rect width="132" height="44" fill="white"/>
</clipPath>
</defs>
</svg>
