<svg width="81" height="88" viewBox="0 0 81 88" fill="none" xmlns="http://www.w3.org/2000/svg">
<path d="M11.272 58.0942V70.0096H8.07006V60.982H3.22802V70.0096H0V58.0942H11.272Z" fill="#6B7175"/>
<path d="M18.9259 58.0942C22.5184 58.0942 24.1844 59.4471 24.1844 62.3609C24.1844 65.2747 22.5444 66.6535 19.2903 66.6535H16.9474V70.0356H13.6934V58.1203H18.9259V58.0942ZM16.9214 60.878V63.8958H18.9259C20.3316 63.8958 20.9824 63.4275 20.9824 62.3869C20.9824 61.3462 20.3316 60.878 18.9259 60.878H16.9214V60.878Z" fill="#6B7175"/>
<path d="M33.6338 67.9283H29.0781L28.3232 70.0096H24.5225L29.2343 58.0942H33.4516L38.1895 70.0096H34.4148L33.6338 67.9283ZM32.7227 65.3527L31.343 61.5544L29.9893 65.3527H32.7227Z" fill="#6B7175"/>
<path d="M49.6703 69.073C49.0195 69.6974 47.9782 70.0096 46.5464 70.0096H39.8301V58.0942H46.2601C48.7332 58.0942 50.165 59.1609 50.165 61.1121C50.165 62.3869 49.5402 63.2714 48.4208 63.7397C49.9827 64.234 50.6596 65.3527 50.6596 66.7056C50.6335 67.6682 50.2951 68.4486 49.6703 69.073ZM43.0321 62.8812H45.2969C46.2601 62.8812 46.8068 62.491 46.8068 61.8145C46.8068 61.1121 46.2601 60.7219 45.2969 60.7219H43.0321V62.8812ZM45.7134 65.0665H43.0321V67.382H45.7134C46.8328 67.382 47.2754 66.8877 47.2754 66.2373C47.3014 65.5609 46.8068 65.0665 45.7134 65.0665Z" fill="#6B7175"/>
<path d="M65.6803 67.1478V72.6632H62.4522V70.0356H54.9028V72.6632H51.6748V67.1478H52.3777C53.3409 67.1478 53.7314 66.6275 53.8876 65.0926L54.5644 58.0942H63.9882V67.1218H65.6803V67.1478ZM60.7862 67.1478V60.982H57.48L57.0896 65.0926C57.0115 65.9251 56.8032 66.6015 56.5168 67.1478H60.7862Z" fill="#6B7175"/>
<path d="M75.6241 67.9283H71.0684L70.3134 70.0096H66.5127L71.2246 58.0942H75.4418L80.1797 70.0096H76.405L75.6241 67.9283ZM74.6869 65.3527L73.3072 61.5544L71.9535 65.3527H74.6869Z" fill="#6B7175"/>
<path d="M16.3485 81.7169H14.5263V87.2323H13.3027V75.3169H14.5263V80.6502H16.3225L21.503 75.3169H23.0909L17.4159 81.1185L23.3513 87.2323H21.7633L16.3485 81.7169Z" fill="#6B7175"/>
<path d="M31.2647 87.3883C27.8805 87.4663 24.8868 84.5525 24.9909 81.2485C24.9128 77.9445 27.8805 75.0567 31.2647 75.1087C34.649 75.0307 37.5906 77.9445 37.5386 81.2485C37.6167 84.5786 34.649 87.4663 31.2647 87.3883ZM31.2647 86.2436C33.9981 86.2956 36.315 83.9802 36.263 81.2745C36.315 78.5688 34.0242 76.2534 31.2647 76.3054C28.5313 76.2534 26.2144 78.5688 26.2665 81.2745C26.2144 83.9802 28.5313 86.2956 31.2647 86.2436Z" fill="#6B7175"/>
<path d="M49.1228 85.5151H48.1596V87.2061H46.9361V85.5151H45.9729C42.2502 85.5151 40.1416 83.9541 40.1416 81.1444C40.1416 78.3347 42.2242 76.7477 45.9729 76.7477H46.9361V75.2908H48.1596V76.7477H49.1228C52.8454 76.7477 54.9541 78.3347 54.9541 81.1444C54.9541 83.9541 52.8454 85.5151 49.1228 85.5151ZM46.9361 84.4484V77.8404H45.9468C43.0052 77.8404 41.3912 78.9851 41.3912 81.1704C41.3912 83.3297 42.9791 84.4745 45.9468 84.4745H46.9361V84.4484ZM49.1488 77.8404H48.1596V84.4484H49.1488C52.0905 84.4484 53.6785 83.3037 53.6785 81.1444C53.6785 78.9851 52.0905 77.8404 49.1488 77.8404Z" fill="#6B7175"/>
<path d="M66.9295 76.4096H59.328V80.6762H66.3307V81.7429H59.328V86.1396H67.0857V87.2323H58.1045V75.3169H66.9295V76.4096Z" fill="#6B7175"/>
<path d="M38.2682 49.6911C38.867 50.1333 39.726 49.639 39.6479 48.8846C39.3355 45.2423 37.9558 38.1399 32.1766 34.2635C28.0375 31.5058 18.5096 30.5693 12.7564 30.3351C8.27883 30.179 4.55619 29.3725 2.26533 26.7189C1.71865 26.0945 0.677356 26.4847 0.729421 27.3172C0.885615 30.7514 1.4323 36.0066 3.38473 39.2586C6.61275 44.644 13.4853 48 24.6272 47.6878C33.0097 47.4797 36.3939 48.3382 38.2682 49.6911Z" fill="#6B7175"/>
<path d="M43.5779 45.3462C43.4738 40.1951 47.9774 13.3204 76.9255 13.2944C77.7064 13.2944 78.123 14.231 77.5763 14.8034C76.2747 16.1562 74.6867 18.7058 73.6193 23.5708C71.4847 33.1447 65.5233 45.8666 44.489 46.2308C43.9684 46.2048 43.5779 45.8145 43.5779 45.3462Z" fill="#6B7175"/>
<path d="M43.6822 7.75308C41.2352 4.34497 37.9811 1.58727 33.5816 0.390526C32.0457 -0.0257309 30.4838 -0.103779 28.9218 0.130366C28.0367 0.260446 27.3859 0.728735 27.1256 1.61328C26.8653 2.4458 27.1256 3.17425 27.7504 3.77262C31.0305 6.84251 33.087 10.5888 34.1283 14.9595C35.1696 19.3823 37.5386 23.0505 40.9488 26.0684C42.3025 27.2391 44.4892 26.7968 45.4524 25.2099C47.4569 21.9579 47.6392 18.4457 46.8322 14.8294C46.3115 12.3319 45.2442 10.0685 43.6822 7.75308Z" fill="#6B7175"/>
<path d="M23.1694 22.8685C25.226 25.7823 28.2457 28.3839 32.2287 29.7107C33.8948 30.257 35.6389 30.4652 37.3831 30.3091C38.3463 30.231 39.1273 29.7887 39.4917 28.8782C39.8822 27.9676 39.4657 27.1611 38.8149 26.5107C35.5088 23.3628 33.4782 19.5644 32.4369 15.1417C31.4217 10.9011 29.1569 7.3889 25.9288 4.4751C24.471 3.14828 22.4405 3.35641 21.3211 4.99542C19.4207 7.77914 19.0823 10.8751 19.5248 14.1271C19.9414 17.1449 21.1128 19.9026 23.1694 22.8685Z" fill="#6B7175"/>
</svg>
