<svg width="177" height="51" viewBox="0 0 177 51" fill="none" xmlns="http://www.w3.org/2000/svg">
<g clip-path="url(#clip0_430_469)">
<mask id="mask0_430_469" style="mask-type:alpha" maskUnits="userSpaceOnUse" x="0" y="0" width="54" height="51">
<path d="M0 0H53.4319V50.388H0V0Z" fill="#6B7175"/>
</mask>
<g mask="url(#mask0_430_469)">
<path fill-rule="evenodd" clip-rule="evenodd" d="M43.1673 20.5843C43.1673 20.5843 43.4457 20.3894 43.7197 20.2722C44.6554 19.8717 45.7066 19.8674 46.6155 19.4457C45.4572 17.7191 43.4168 17.9566 42.1032 16.7179C42.8836 16.8617 43.9124 16.7722 44.7025 16.6998C46.1606 16.5624 46.3854 16.0501 47.0694 15.0329C47.2664 14.7347 47.5394 14.4418 47.776 14.282C48.8615 13.5631 51.6556 13.9114 52.8792 13.9114C51.7969 13.333 50.1076 12.2562 48.8615 12.1433C44.043 11.5564 42.1974 13.2254 39.0083 11.632C38.6593 11.4968 40.5574 10.3582 41.7061 10.3166C41.4737 10.1622 40.0435 9.66798 39.5168 9.67757C38.2589 9.70846 37.6434 10.1409 36.6842 10.83C36.6842 9.91722 36.743 9.25259 37.6434 8.67636C38.1936 8.32594 39.2909 8.07138 39.702 7.77315C40.1142 7.47812 40.537 6.66864 40.6869 6.21171C40.8378 5.75797 40.8132 4.59594 40.8132 4.59594C40.1859 5.36601 39.7116 5.95502 38.6829 6.15313C38.6829 6.15313 34.5752 6.92852 33.5903 7.27255C32.6065 7.61765 31.5317 8.67636 31.5317 8.67636C31.5317 8.67636 31.3839 8.49104 31.3722 8.03624C31.3604 7.5825 33.5347 3.63628 33.2467 3.81841C32.9619 4.00161 31.6344 4.39037 30.8422 4.66304C30.0554 4.93677 28.6948 5.22009 27.0857 5.93904C25.4682 6.65692 24.5421 8.23115 24.3923 8.01493C24.2435 7.79446 23.8763 7.35563 23.8099 6.65692C23.7392 5.96247 24.403 4.80896 24.6695 4.18268C25.2316 2.83958 25.4724 1.21422 24.4629 0C24.0947 0.282253 20.5405 3.99628 19.8147 5.24246C19.0888 6.49077 18.0536 9.25578 18.0536 9.25578L16.8407 12.94C16.8407 12.94 16.4757 12.6226 16.2562 12.2935C16.0399 11.9601 16.1523 10.6617 16.1523 10.6617C16.4478 8.70725 16.4885 6.33206 14.6911 4.96979C14.1644 4.56825 13.4664 4.61831 13.4664 4.61831C13.4664 4.61831 13.9417 5.27228 13.8999 6.10946C13.8614 6.94024 13.6259 7.80724 13.6259 7.80724L12.7095 11.4968C11.9334 14.4801 12.2417 16.2003 12.1368 16.1918C10.7419 16.048 9.67453 14.8146 9.39084 13.5354C9.25274 12.9048 9.25274 10.7608 9.25274 10.7608C7.69725 13.0497 6.83226 14.5302 7.30865 17.308C7.64051 19.2273 8.72068 21.2425 9.69915 22.9275C10.2034 23.7966 10.5674 25.3506 10.5674 25.3506C9.97856 24.7616 9.42724 24.2578 8.51193 24.2578C7.17055 24.2578 5.27998 25.4262 4.11524 24.7265C4.01889 24.669 3.68167 24.5316 3.68167 24.5316C3.68167 24.5316 3.85831 24.9256 3.95573 25.0833C5.20825 27.0846 6.78944 26.731 8.6875 27.6363C9.71414 28.1167 10.2933 28.4714 11.0148 29.4034C10.4935 29.1424 9.10929 29.3331 8.58687 29.5195C7.72509 29.8241 7.00354 30.4823 6.06468 30.7912C4.57343 31.2907 2.45912 31.0926 1.02246 30.4227C0.688449 30.2672 -0.000976562 29.8518 -0.000976562 29.8518C-0.000976562 29.8518 0.116782 30.2086 0.275222 30.5025C0.43152 30.7912 1.53631 32.3292 1.89066 32.6796C3.16353 33.946 4.50384 34.4679 6.22205 34.6756C9.14355 34.8077 11.6818 34.2368 14.4802 34.7619C15.4265 34.9419 16.5292 35.5671 16.5292 35.5671C13.537 36.4501 14.6664 38.1213 10.971 38.8072C13.4963 39.9373 15.4544 39.5432 17.8695 38.8072C19.5427 38.2981 21.3755 38.2768 21.3755 38.2768C20.2836 38.7806 18.8672 39.7243 18.2249 40.7318C16.6619 43.1827 14.8698 44.5289 11.9591 44.8719C13.0499 46.5772 16.4575 45.8305 17.9487 45.4023C19.7055 44.9039 21.3626 44.0507 22.6559 42.7555C22.9139 42.501 23.6814 41.7128 23.9555 41.4178C24.2328 41.1238 24.6695 40.7318 25.0978 40.4379C25.5345 40.1428 26.3203 39.8063 26.7346 39.7147C27.1457 39.6092 28.137 39.7509 28.137 39.7509L28.0546 39.8063C27.9732 39.8691 27.7216 40.3196 27.5214 40.6125C26.877 41.5807 26.6115 42.8919 26.5376 44.0305C26.4969 44.6397 26.3203 45.6601 26.3203 45.6601C27.8779 44.1966 28.8949 41.4764 30.8551 40.4965C31.1656 40.3409 31.5435 40.3591 31.5435 40.3591C31.4428 42.288 30.2021 43.9261 30.2021 45.8571C30.2021 49.7895 33.9661 50.5095 33.9436 50.3732C33.8001 49.3113 33.8472 47.3675 34.1031 46.329C34.5699 44.4821 35.5601 42.6416 36.1339 40.7723C36.4123 39.8563 36.3737 38.6474 36.2538 37.7091C36.7805 37.6377 38.139 40.1428 38.0641 40.4581C38.0641 39.7818 38.488 38.5761 38.5555 37.7645C38.6272 36.9241 38.4473 35.8483 38.2011 35.0399C39.2149 35.4031 39.9386 35.9239 40.6045 36.7654C40.8989 37.1403 41.356 37.7847 41.6086 38.199C42.1889 39.1289 42.676 40.472 43.6202 41.0663C44.0773 41.3485 44.892 41.2303 45.4144 41.1653C44.9476 40.7404 44.5376 40.4581 44.2711 39.8691C43.7529 38.7401 43.6427 36.8474 43.6427 35.5671C43.6427 33.4998 43.1866 31.4207 42.1246 29.6366C42.661 29.7005 43.1545 29.8369 43.5988 30.167C43.8311 30.3407 44.4081 30.7997 44.7239 30.6186C44.1405 30.0861 44.331 29.0551 44.0334 28.3425C43.9317 28.1071 43.5988 27.3626 43.5988 27.3626C44.027 27.4297 44.4723 27.7716 44.862 27.9484C45.7516 28.3574 46.972 28.4714 47.9334 28.5161C49.521 28.6035 51.1385 28.5886 52.5838 29.3064C52.7433 29.3831 53.4316 29.9519 53.4316 29.9519C53.4316 29.5301 53.4349 29.0955 53.2893 28.6972C52.9242 27.6619 52.0945 27.0356 51.2638 26.3966C50.3078 25.667 49.1367 25.1674 48.0747 24.6082C47.5779 24.3537 46.4592 23.5091 46.1252 23.2183C45.0633 22.2874 44.4284 21.3032 43.1673 20.5843ZM37.2783 30.0233C37.3543 29.5429 37.3779 29.086 37.3918 28.5886C37.8875 27.9154 38.2943 27.2305 38.6036 26.4562C38.3574 27.7311 37.9035 28.9336 37.2783 30.0233ZM31.9781 34.9004C32.0873 34.8077 32.2158 34.7129 32.2832 34.6298C33.3387 34.0036 34.2337 33.4199 35.1319 32.6029C35.3877 32.3164 36.0472 31.7807 36.1639 31.4409C36.1189 31.3983 36.1885 31.3131 36.166 31.2758C36.06 31.345 36.0697 31.2503 36.059 31.1757C35.8449 31.5623 35.5762 32.3026 35.0045 32.3026C34.9381 32.2163 35.0933 32.1077 35.0933 32.0267C34.9767 32.0981 34.861 32.1726 34.7486 32.2429C34.7358 32.3782 34.4703 32.539 34.3622 32.6296C34.2498 32.8394 34.0432 33.2015 33.8034 33.0663C33.388 33.2729 33.0229 33.7224 32.6846 34.0323C32.6846 33.9407 32.826 33.6627 32.8602 33.5669C32.948 33.2559 32.9951 32.4879 33.1942 32.3068C33.0893 32.2152 33.0957 32.1162 33.13 31.9788C33.7156 31.671 34.2915 31.3355 34.8482 30.9744C34.8172 31.0213 34.8172 31.0213 34.8225 31.0298C34.9981 30.9446 34.9981 30.9446 35.0484 30.9094C35.0398 30.8934 35.0355 30.886 35.0302 30.8732C34.9638 30.9126 34.9638 30.9126 34.9349 30.9094C35.8063 30.2597 36.5536 29.5684 37.2644 28.7462C37.273 28.7441 37.2783 28.7398 37.2858 28.7398C37.2783 29.2649 37.2526 29.8102 37.1049 30.3183C35.8941 32.3026 34.1074 33.9088 31.9781 34.9004ZM27.2602 36.0049C27.3577 35.6609 27.2709 33.6766 27.2709 33.4018C27.9432 33.3698 28.6113 33.3187 29.2739 33.225C29.5319 33.4273 29.7835 33.5733 30.1154 33.504C30.125 33.4146 30.1368 33.3283 30.1507 33.2409C30.0447 33.2015 29.9366 33.1664 29.8349 33.127V33.1025C30.2042 33.0343 30.5703 32.9289 30.9332 32.833C30.9985 32.833 31.0103 32.882 31.0435 32.9289C31.749 32.7691 31.749 32.7691 31.7993 32.7691C31.9438 32.8426 32.1087 32.5838 32.1087 32.4538C32.1504 32.3654 32.66 32.1993 32.766 32.1556C32.6482 32.4741 32.7596 32.3558 32.7789 32.62C32.7853 32.6168 32.7938 32.6136 32.8024 32.6083C32.8024 32.4155 32.811 32.375 32.8998 32.2206C32.9277 32.2163 32.9534 32.2163 32.9812 32.2163C33.0283 32.3122 32.948 32.7212 32.9384 32.817C32.8506 33.2441 32.7457 33.782 32.4812 34.141C32.1151 34.3263 31.7533 34.5127 31.3936 34.6948C31.2651 34.8375 31.3197 34.7939 31.3026 34.9313C31.2822 34.9419 31.2565 34.9568 31.2341 34.9696C31.5317 35.1155 31.8914 34.6479 32.0616 34.7278C31.9438 34.8375 31.8229 34.9366 31.6965 35.0303C30.3316 35.6215 28.8318 35.9665 27.2602 36.0049ZM20.7589 31.9905C22.5638 32.7797 24.251 33.2207 26.2261 33.389C26.5408 33.3911 26.8524 33.3964 27.1682 33.4018C27.1682 33.6766 27.075 35.6736 27.2046 36.0049C27.1318 36.006 27.0547 36.007 26.9798 36.007C25.0432 36.007 23.2147 35.5437 21.5992 34.7172C20.9473 34.0004 20.6625 32.9534 20.7589 31.9905ZM21.4312 13.8304C22.8336 13.7154 24.2767 14.495 25.3996 15.2374C25.3793 15.2428 25.3793 15.2428 24.9843 15.1128C24.9072 15.0138 24.9072 15.0138 24.8922 15.0095C24.8023 15.0979 24.6235 15.0787 24.51 15.0383C24.5047 15.0095 24.4929 14.9893 24.51 14.9626C24.4972 14.952 24.3323 14.9626 24.3023 14.952C24.3023 14.8742 24.3163 14.8306 24.3441 14.7528C23.9833 14.4471 23.2382 14.6016 22.8528 14.7816C22.8528 14.8529 23.1066 14.788 23.1066 14.9573C23.1815 14.9882 23.2521 15.0201 23.3314 15.0532C23.3271 15.1128 23.3185 15.1661 23.2875 15.2193C23.3089 15.2332 23.3271 15.2491 23.3506 15.2651C23.3506 15.2822 23.3506 15.2971 23.3538 15.3162C23.3132 15.3589 23.2511 15.361 23.2211 15.4068C23.2511 15.46 23.2821 15.5154 23.3132 15.5708C23.3506 15.5729 23.3902 15.5751 23.4331 15.5825C23.4941 15.6784 23.3742 15.7039 23.3025 15.7338C23.2853 15.786 23.2671 15.8403 23.2521 15.8914C21.6581 15.8254 20.0009 15.7561 18.4636 16.2471C18.333 16.3025 18.2399 16.3419 18.1757 16.3686C19.1006 15.3471 20.2011 14.4855 21.4312 13.8304ZM31.9438 13.5407C31.7993 13.5673 31.6537 13.595 31.5145 13.6259C30.1036 13.0572 28.7461 12.7898 27.2367 12.7046C27.2388 12.6226 27.2431 12.5384 27.2474 12.4532C28.9206 12.4916 30.5082 12.8771 31.9438 13.5407ZM38.8177 24.2301C38.8177 24.7467 38.7824 25.2569 38.7182 25.7554C38.4334 26.7448 37.9892 27.5714 37.3843 28.4277C37.3715 28.3883 37.3243 27.9335 37.2387 27.3626C36.6745 24.6753 35.4081 22.3385 33.4972 20.3681C33.3826 20.0155 33.3537 19.8738 33.0732 19.6331C33.0754 19.6033 33.0807 19.5735 33.0829 19.5458C33.0315 19.5138 32.9812 19.4819 32.9309 19.4521C32.4994 19.5287 32.5647 18.9547 32.5134 18.7054C32.5316 18.6745 32.5316 18.6745 32.6482 18.601C32.5358 18.4189 32.2414 18.0685 32.2414 17.8608C32.2596 17.8395 32.2736 17.8342 32.265 17.8043C32.1483 17.7979 32.0295 17.7937 31.9181 17.7905C31.8967 17.7703 31.8967 17.7703 31.8357 17.5881C31.7608 17.5391 31.689 17.4901 31.613 17.4401C31.6098 17.4124 31.6055 17.3943 31.6055 17.374C31.643 17.3368 31.7137 17.3666 31.7608 17.374C31.8036 17.2846 31.8411 17.2026 31.9085 17.1365C31.8453 17.0865 31.6997 16.9405 31.6216 16.9405C31.6013 16.9714 31.5852 17.0023 31.5649 17.0321C31.5799 17.063 31.627 17.063 31.6612 17.0726C31.673 17.1035 31.673 17.1408 31.6548 17.1663C31.3111 17.2175 31.0628 17.4401 30.9611 17.7703C31.0307 17.815 31.1035 17.8608 31.173 17.9055C31.1698 17.9268 31.1698 17.9471 31.1698 17.9705C31.1238 17.9929 31.1238 17.9929 30.9611 18.0206C30.9547 18.0621 30.9504 18.1058 30.9504 18.1484C29.9719 17.5018 28.9581 17.0321 27.8522 16.6615C27.8383 16.6892 27.8287 16.719 27.8191 16.7541C28.9185 17.1248 29.9558 17.5945 30.9086 18.2559C30.9268 18.4828 30.7448 18.3827 30.5586 18.3806C30.5007 18.4754 30.4451 18.5755 30.3894 18.6745C30.1924 18.7203 30.1924 18.7203 30.095 18.7331C30.0672 18.7107 30.0447 18.6937 30.0211 18.6745C29.9516 18.7193 29.761 18.8045 29.7278 18.8769C29.7899 18.9696 29.8413 19.0058 29.8531 19.1176C29.7385 19.2231 29.6786 19.3274 29.518 19.3147C29.5373 19.386 29.5694 19.4553 29.5619 19.5287C29.3617 19.6257 29.1037 19.32 28.9849 19.2156C28.5866 18.437 28.1006 17.6861 27.6199 16.9533C27.5439 16.9874 27.5439 16.9874 27.5332 17.0044C28.0032 17.7298 28.4496 18.4754 28.8789 19.2252C28.866 19.2859 28.8853 19.3242 28.8853 19.386C28.683 19.55 28.5021 19.3424 28.3479 19.5852H28.2869C28.2558 19.55 28.2291 19.5149 28.2034 19.4819C28.1734 19.6992 28.0246 19.7098 27.8811 19.6182C28.0064 19.3999 28.2312 19.2007 27.9572 19.0431C27.8522 19.0431 27.727 19.2018 27.6777 19.0505C27.5975 19.0505 27.5975 19.0505 27.5868 19.0377C27.5686 19.0931 27.5461 19.1442 27.499 19.1655C27.499 19.3093 27.3544 19.2625 27.2367 19.2689C27.2292 18.5339 27.227 17.7979 27.2217 17.062H27.1318C27.1253 17.8043 27.1211 18.5499 27.12 19.2955C27.0386 19.3413 26.9562 19.3903 26.877 19.434C26.8352 19.7279 26.8267 19.6693 26.5226 19.7492C26.5173 19.7545 26.5098 19.7631 26.5076 19.7737C26.5933 19.9388 26.7357 20.1849 26.5494 20.3691C26.3396 20.3691 26.4466 20.1518 26.4862 20.0421C26.4081 19.9953 26.2818 19.877 26.1961 19.958C26.2218 20.0123 26.2464 20.0634 26.2775 20.1167C26.2636 20.1486 26.2636 20.1486 26.2218 20.1742C26.0323 20.0805 26.0195 20.0964 26.0195 19.8919C25.9263 20.0048 25.8889 20.2051 25.8985 20.3542C25.9756 20.3925 26.0548 20.4309 26.1287 20.4714C26.1233 20.5438 26.1169 20.6141 26.1115 20.6844C26.1255 20.6897 26.1426 20.7025 26.1629 20.7121C26.1629 20.858 26.0366 20.7994 25.9627 20.7281C25.9627 20.6588 25.9627 20.5853 25.967 20.5214C25.8857 20.5214 25.6341 20.874 25.5731 20.9443C25.4724 20.9443 25.3525 20.8505 25.3525 20.744C25.4382 20.6982 25.6448 20.6141 25.663 20.5949C25.7379 20.3095 25.8129 20.0283 25.8889 19.746C25.861 19.7332 25.8289 19.7226 25.8054 19.7077C25.6448 19.8174 25.466 19.9867 25.466 20.1976C25.5003 20.269 25.5302 20.3212 25.5302 20.3989C25.4724 20.4543 25.4393 20.5108 25.3525 20.4991C25.1427 20.2072 25.1427 20.2072 25.0432 20.0911C24.9618 20.1604 24.8901 20.2509 24.7884 20.2669C24.661 20.0805 26.0752 18.0504 26.2818 17.7383C26.4509 17.4901 26.6222 17.2452 26.7988 16.9991C26.7871 16.9767 26.726 16.9448 26.6993 16.9597C25.9756 17.9929 25.3172 19.0473 24.6727 20.1273C24.6021 20.1486 24.5389 20.1486 24.4672 20.1486C24.4297 20.1124 24.4447 20.0677 24.4672 20.0283C24.403 20.023 23.9951 20.073 23.7992 20.0805C23.7885 20.0634 23.7885 20.0634 23.7746 19.8738C23.7157 19.9452 23.6632 20.0187 23.6118 20.0911C23.5112 20.0911 23.5273 20.0048 23.5251 19.9271C23.4052 19.9271 23.4052 19.9271 23.3378 19.9388C23.3025 20.008 23.265 20.0805 23.2275 20.1486C23.2061 20.1444 23.1879 20.1444 23.1686 20.1444C23.1322 20.0677 23.1001 19.9921 23.068 19.9154C23.0273 19.9633 22.9877 20.0187 22.9524 20.073C22.9278 20.0677 22.9064 20.0677 22.8882 20.0677C22.8411 19.975 22.8229 19.8536 22.8229 19.7492C23.0391 19.5607 23.0359 19.5554 23.0851 19.2859C22.9042 19.4712 22.7254 19.6598 22.5435 19.8515C22.4107 19.8515 22.2598 19.7684 22.1399 19.7183C22.1527 19.8802 22.2576 20.2083 22.0756 20.335C21.8669 20.3925 21.6581 20.4543 21.4451 20.5204C21.4312 20.743 21.4783 21.3021 21.1357 21.1626C21.1229 21.1903 21.1111 21.2212 21.0993 21.251C21.2385 21.4353 21.1453 21.562 21.1229 21.7932C21.4858 22.5142 21.4569 22.3055 20.9055 22.478C20.7685 22.5632 20.7963 22.6996 20.7096 22.8114H20.6229C20.6657 23.3759 20.9291 23.7178 21.2171 24.2035C21.2406 24.1982 21.2717 24.195 21.3006 24.195C21.3059 23.9979 21.3123 23.7966 21.3209 23.6028C21.3541 23.508 21.5479 23.3195 21.641 23.3195C21.671 23.3642 21.671 23.3642 21.6934 23.3738C21.7448 23.2183 21.7202 23.0223 21.7202 22.8583C21.8091 22.7954 22.0028 22.5739 22.1056 22.6772C22.2169 22.6186 22.4107 22.6506 22.5402 22.6474C22.6537 22.7912 22.7693 22.9318 22.8807 23.0766C23.1579 23.099 23.2061 23.0511 23.3132 23.2992C23.3581 23.3046 23.402 23.3056 23.447 23.3088C23.4373 23.2374 23.4277 23.1672 23.4234 23.099C23.4652 23.0766 23.4845 23.0724 23.5348 23.0681C23.5508 22.9627 23.5947 22.9818 23.7028 22.969C23.7028 22.919 23.6964 22.8519 23.7232 22.8114C24.7284 22.8316 24.7284 22.8316 24.7766 22.8466C24.7969 22.8721 24.7969 22.8721 24.8697 23.0915C24.9736 23.1277 25.1449 23.1277 25.1502 23.2577C25.45 23.1991 25.45 23.1991 25.4981 23.1991C25.5977 23.296 25.6962 23.7359 25.7444 23.8872C25.7925 23.8712 25.8097 23.8616 25.8632 23.8616C25.9627 23.9979 26.0794 23.9426 26.2314 23.9979C26.3695 24.1353 26.392 24.1939 26.5847 24.1939C26.6222 24.2344 26.6607 24.2791 26.7036 24.3249C26.8684 24.2536 27.059 24.1098 27.2367 24.0842C27.4829 24.1311 27.7066 24.1353 27.9572 24.1396C27.9572 23.9426 27.9368 23.7934 28.0899 23.6454C28.3907 23.7125 28.4614 23.7317 28.6669 23.9479C28.698 23.9404 28.698 23.9404 28.8157 23.8712C29.3992 23.8478 29.4602 24.0022 29.9623 23.655C30.1592 23.6028 30.3776 23.6496 30.5425 23.508C30.5222 23.3216 30.4397 23.0947 30.4397 22.9222C30.7598 22.6612 30.7523 22.69 31.1645 22.69C31.2876 22.8135 31.4107 22.9371 31.5349 23.0649H31.9503C31.9781 23.0915 32.0038 23.1214 32.0327 23.1512C32.1151 23.0223 32.2018 22.8924 32.2832 22.7677H32.3506C32.4705 23.0074 32.5647 23.3397 32.5819 23.6038C32.3624 23.8382 32.3774 23.787 32.5433 24.0714C32.5883 23.885 32.6151 23.9362 32.811 23.9362C33.0037 23.508 32.8806 22.9627 32.8506 22.4908C32.7392 22.2831 32.63 22.0754 32.523 21.8709C32.4416 21.8517 32.3549 21.8326 32.2736 21.8113C32.2414 21.758 32.2918 21.7325 32.296 21.6803C32.265 21.6803 32.2297 21.6739 32.2018 21.6739C32.1676 21.758 32.128 21.8656 32.0734 21.938H31.9599C31.9256 21.8986 31.8914 21.8656 31.8625 21.8283C31.8036 21.8336 31.7308 21.8656 31.6826 21.8283C31.6773 21.4246 31.673 21.022 31.6708 20.6184C31.7758 20.5033 31.8828 20.3851 31.992 20.2743C31.9899 20.2264 31.9867 20.1742 31.9824 20.1273C32.0637 20.0805 32.1783 19.9686 32.2736 19.9846C32.2853 19.9484 32.296 19.9154 32.311 19.8824C32.0755 19.8248 31.9577 19.3647 32.0755 19.1751C32.4063 19.468 32.69 19.664 32.8624 20.0538C33.0989 20.2307 33.3387 20.4075 33.571 20.5843C35.65 22.6506 36.9936 25.569 37.273 28.4714C37.2655 28.5119 37.2655 28.5481 37.2655 28.5896C36.0868 29.9732 34.7604 31.034 33.13 31.8627V31.7349C33.4929 31.5453 33.4929 31.5453 33.4833 31.5421C33.3623 31.5985 33.2435 31.655 33.1246 31.7157C33.085 29.6238 32.5251 27.5714 31.9064 25.5913C31.7972 25.2942 31.7833 25.3506 31.9824 25.1014C32.0873 24.8553 31.9781 24.5912 32.265 24.5337C32.2736 24.4123 32.3057 24.1353 32.4299 24.0863C32.265 23.7732 32.2414 23.8222 32.4823 23.5666C32.3175 22.9818 32.3174 22.9818 32.296 22.9424C32.2211 23.0543 32.1483 23.1672 32.0734 23.2854H32.0145C31.9781 23.2449 31.9438 23.2044 31.9085 23.165H31.4846C31.3636 23.0372 31.2458 22.9126 31.1238 22.7912H30.7598C30.5939 22.9318 30.5939 22.9318 30.55 22.9584C30.55 23.213 30.8144 23.5868 30.4376 23.6933C30.4665 23.8999 30.4665 23.8999 30.4804 23.9149C30.7962 23.8115 30.7331 23.8222 30.9761 24.0714C30.9761 24.1172 30.4215 24.6721 30.3712 24.7318C30.2909 24.7435 30.2117 24.7606 30.1357 24.7787C30.125 24.8202 30.1967 24.9299 30.2042 24.9991C29.9922 25.2281 29.5415 25.6734 29.2204 25.6734C29.0416 25.6212 28.866 25.5679 28.6873 25.5168C28.4892 25.5466 28.2901 25.5775 28.0899 25.6116C27.9657 25.5072 27.8405 25.4028 27.7195 25.3038C27.15 25.1344 27.1543 25.2612 27.029 24.7382C26.9444 24.6423 26.862 24.5486 26.7806 24.457C26.71 24.457 26.6383 24.5081 26.5772 24.539C26.5258 24.8266 26.4402 24.7382 26.1426 24.7606C26.0559 25.1099 26.0966 25.0535 25.7379 25.1344C25.7015 25.6116 25.7015 25.6116 25.6865 25.6371C25.4393 25.6734 25.2508 25.8725 25.0164 25.9503C24.7049 25.9939 24.6021 25.9098 24.5528 26.1878C24.5957 26.2283 24.6396 26.2687 24.6856 26.3145C24.6845 26.3731 24.6845 26.4306 24.6845 26.4935C24.8922 26.6298 25.1074 26.7619 25.3194 26.8918C25.4628 27.0559 25.3525 27.0889 25.2091 27.2391C25.2262 27.353 25.284 27.4574 25.284 27.5714C25.2615 27.5884 25.2615 27.5884 25.0978 27.5852C25.0978 27.6449 25.0978 27.6449 25.1331 27.8004C25.2262 27.8568 25.3119 27.9154 25.4029 27.9708C25.9585 28.0145 26.3203 28.7398 26.9262 28.4117C27.1018 28.3809 27.3641 28.5161 27.3641 28.711C27.3362 28.7249 26.9262 28.7345 26.8738 28.7462C26.8909 28.7504 26.9102 28.7536 26.9284 28.7568C26.9562 28.8175 26.984 28.8793 27.0129 28.9432C27.1318 28.9592 27.3266 28.9603 27.4197 29.0327V29.0657C27.2474 29.2191 27.2474 29.2191 27.2431 29.2372C27.2849 29.2777 27.3491 29.2713 27.4048 29.2777C27.4197 29.3011 27.4197 29.3011 27.4476 29.5791H27.5461C27.5461 29.3107 27.4711 29.3075 27.6895 29.1925C27.8383 28.8751 27.9368 28.7057 28.1948 28.4671C28.1852 28.4277 28.0246 28.2956 27.985 28.22C28.0321 28.0837 28.1424 28.2797 28.1788 28.3255C28.3136 28.384 28.4496 28.4448 28.5856 28.5044C28.6551 28.6578 28.5267 28.939 28.4849 29.0881C28.683 29.0998 28.6787 29.2031 28.7686 29.3927C28.8628 29.4012 28.9581 29.4044 29.0545 29.4151C29.0598 29.3895 29.0619 29.3661 29.0662 29.3437C29.29 29.2649 29.5105 29.1648 29.7257 29.0647C29.898 29.0923 30.1111 29.2798 30.2577 29.3746C30.3841 29.3384 30.5168 29.2777 30.6506 29.2777C30.6656 29.2968 30.6774 29.3224 30.6934 29.3437C30.7523 29.2031 30.9985 29.1275 31.1334 29.0551C31.1848 28.9336 31.1848 28.9336 31.2309 28.8548C31.2844 28.8548 31.3004 28.858 31.3433 28.891C31.4599 28.8175 31.5777 28.7441 31.6998 28.6706C31.825 28.4661 31.9545 28.2648 32.0819 28.0613C32.0327 27.7301 32.2521 27.5405 32.265 27.2039H32.2789C32.3506 27.4862 32.4224 27.7727 32.4973 28.0581C32.4363 28.1167 32.4063 28.2648 32.372 28.3478C32.3967 28.3809 32.4224 28.4117 32.4502 28.449C32.4609 28.3287 32.4759 28.2115 32.4941 28.0901C32.6236 28.253 32.7296 29.0615 32.7296 29.1754C32.6986 29.185 32.6729 29.1925 32.6482 29.2084C32.6504 29.2713 32.7307 29.6057 32.6151 29.6377C32.6236 29.6643 32.6311 29.692 32.6482 29.7197C32.7853 29.7271 32.7853 29.709 32.8185 29.8283C32.8302 29.8241 32.8442 29.8241 32.8549 29.8241C32.948 30.5238 33.0069 31.2076 33.0133 31.9138C32.6418 32.0938 32.6418 32.0938 32.2297 32.2728C32.2875 32.1311 32.3624 32.0022 32.4941 31.9191C32.3902 31.8393 32.265 31.6838 32.1322 31.7626C31.9149 32.08 31.4246 32.702 30.9878 32.4698H30.944C30.9086 32.5199 30.8733 32.5721 30.838 32.6285C30.8658 32.6594 30.8894 32.6956 30.9086 32.7286C30.5072 32.8469 30.0907 32.9416 29.6829 33.0386C29.6786 33.0066 29.6743 32.9736 29.6711 32.9416C29.6133 32.9576 29.6133 32.9576 29.5533 32.9534C29.5319 32.9257 29.5319 32.882 29.5533 32.85C29.4955 32.7936 29.2193 32.7797 29.1294 32.7691C28.8061 32.587 28.6038 32.4389 28.2291 32.4155C28.531 32.653 28.8382 32.8927 29.1455 33.127C28.5224 33.2143 27.8993 33.2729 27.2709 33.3048C27.2677 32.0491 27.2677 30.7944 27.2677 29.5397C27.3448 29.5578 27.4197 29.8006 27.4519 29.8784C27.7891 30.2224 27.8811 30.2373 27.8715 30.6911C28.0706 30.722 28.2034 30.6218 28.2441 30.4408C28.3554 30.3247 28.516 30.6442 28.562 30.657C28.6048 30.363 28.4068 30.2778 28.4678 29.9604C28.6038 29.856 28.9014 29.692 28.9217 29.5056C28.6455 29.4928 28.6873 29.4619 28.5599 29.2021C28.4978 29.1925 28.4432 29.1925 28.3843 29.1882C28.3211 29.0838 28.4978 28.7345 28.4892 28.5651C28.3822 28.5257 28.3822 28.5257 28.304 28.5044C28.2034 28.5896 28.1006 28.6791 28.0064 28.7675C27.9058 28.9741 27.8405 29.2084 27.6403 29.3267C27.6381 29.43 27.6381 29.5365 27.6381 29.643C27.4262 29.855 27.3395 29.5013 27.3277 29.3778C27.2313 29.3778 27.12 29.3064 27.12 29.2021C27.1596 29.1594 27.2014 29.12 27.2388 29.0838C26.9787 29.0423 26.9509 29.0753 26.8566 28.8442C26.8128 28.842 26.7721 28.8335 26.7314 28.8303C26.7314 28.9081 26.7196 28.9826 26.6875 29.0519C26.7314 29.2777 26.7721 29.5013 26.8149 29.7314C26.8738 29.7271 26.9284 29.7197 26.9894 29.7101C27.0269 29.643 27.0611 29.5748 27.0986 29.5099C27.12 29.5056 27.1403 29.5013 27.1596 29.5013C27.1617 30.7688 27.1639 32.0352 27.1682 33.3048C24.919 33.2782 22.7972 32.8596 20.7578 31.8819C20.7824 30.7944 21.0179 29.7197 21.2545 28.6578C21.3337 28.6067 21.4151 28.5577 21.4975 28.5119C21.3209 28.2317 21.3851 28.1519 21.4633 27.8249C21.5875 27.8249 21.8968 28.0698 22.0103 28.1391C22.2127 27.8898 22.0992 28.0251 22.3454 28.0251C22.2812 27.8781 22.1613 27.4713 22.0317 27.3946C22.0317 27.2891 22.1763 27.1901 22.2426 27.1123C21.9975 26.8599 22.0853 26.8407 22.2084 26.4935C22.3454 26.3827 22.3454 26.3827 22.4921 26.2826C22.4182 25.667 21.7866 25.2782 21.5875 24.7073C21.3209 24.539 20.9387 24.6753 20.7011 24.457C20.5341 24.6903 20.548 24.7669 20.5565 25.0535C20.4955 25.1344 20.4356 25.2143 20.381 25.2942C20.397 25.5999 20.4152 25.9098 20.4356 26.2208C20.6058 26.4637 20.6036 26.6298 20.6411 26.944C20.7118 27.0591 20.7824 27.1762 20.852 27.2891C21.1935 27.3988 21.3787 27.353 21.3787 27.7578C21.3434 27.8845 21.3113 28.0091 21.2759 28.1348H21.2545C21.1999 28.056 21.1528 27.975 21.1036 27.8962C21.0618 27.9388 21.0265 27.9846 20.989 28.0315C21.0286 28.3425 21.0286 28.2765 20.7888 28.5449C20.7235 28.5481 20.7235 28.5481 20.3756 28.5012C20.3895 28.6525 20.4035 28.8058 20.4195 28.9592C20.6036 29.0189 20.7706 29.0487 20.913 28.8868C20.9687 28.8868 21.0265 28.891 21.0854 28.8964C20.8852 29.8784 20.7096 30.8274 20.655 31.8222C19.8221 31.4122 19.061 30.9265 18.3234 30.363C18.3759 30.3545 18.4305 30.3502 18.484 30.3407C18.4262 30.0914 18.3705 29.8401 18.3116 29.5919C18.1093 29.2915 17.817 29.0189 17.5665 28.7536C17.6019 28.9794 17.6639 28.9794 17.4905 29.1041C17.4092 29.4822 17.9466 30.0744 18.1478 30.3865C18.1692 30.3896 18.1981 30.3992 18.2249 30.4024C18.9754 30.9978 19.7954 31.4952 20.6454 31.9436C20.6454 32.8927 20.7514 33.8374 21.3391 34.5808C19.8104 33.749 18.4872 32.587 17.4563 31.2013C17.6211 31.1533 17.3299 30.8402 17.2796 30.7454C17.2464 30.7539 17.2668 30.8093 17.1993 30.8274C17.2122 30.8519 17.224 30.87 17.2368 30.8934C17.2646 30.936 17.2882 30.9755 17.316 31.0138C17.2743 30.9531 17.2529 30.9179 17.2368 30.8934C16.4553 29.7666 15.8601 28.5044 15.5111 27.1443C15.6224 27.3679 15.7413 27.5863 15.8665 27.8068C16.1577 28.5928 16.4714 29.3437 16.8814 30.0744C16.9606 30.3012 17.0516 30.527 17.1554 30.7401C17.1437 30.6911 17.1351 30.6442 17.1233 30.592C16.6673 29.4044 16.1898 28.2168 15.6674 27.0505C15.6674 27.091 15.7488 27.3679 15.7488 27.4031C15.6085 27.1368 15.4897 26.878 15.3891 26.6149C15.2253 25.8416 15.1418 25.0439 15.1418 24.2301C15.1418 21.3139 16.2155 18.6458 17.9883 16.5859C19.5256 15.7561 21.6196 15.9095 23.2971 16.0043C23.311 16.0192 23.326 16.0405 23.3378 16.0608C23.3646 16.0405 23.3646 16.0405 23.3795 16.0139C23.5979 16.0309 23.8206 16.0501 24.0465 16.0725C24.0625 16.1055 24.0625 16.1055 24.0732 16.1705C24.1236 16.1843 24.1236 16.2045 24.1182 16.2557C24.1846 16.2472 24.1846 16.2471 24.282 16.2152C24.2959 16.2216 24.3077 16.2312 24.3184 16.2408V16.2972C24.4576 16.2972 24.5282 16.1374 24.571 16.3409C24.7434 16.2312 24.8804 16.3654 25.0464 16.4463C25.0549 16.4272 25.0667 16.4154 25.0763 16.4005H25.1427C25.1941 16.4815 25.2027 16.5358 25.3001 16.5859C25.3097 16.5592 25.3194 16.5315 25.329 16.5049C25.2637 16.4634 25.1534 16.4005 25.2027 16.3121C25.2722 16.3121 25.3268 16.3324 25.3964 16.3579C25.4103 16.3025 25.4103 16.3025 25.4221 16.2887C25.5142 16.2972 25.5934 16.2823 25.694 16.2951C25.6865 16.3366 25.6801 16.3771 25.6737 16.4154C25.9702 16.3057 26.1843 16.392 26.5034 16.4463C26.5173 16.4154 26.5291 16.3952 26.5451 16.3718C26.5226 16.3547 26.5226 16.3547 25.8097 16.2152C25.8097 16.1641 25.8493 16.1545 25.8889 16.1406C25.8493 16.114 25.8129 16.0916 25.7775 16.0671C25.7775 15.9148 26.0163 16.0224 26.119 15.8403C26.0966 15.7923 26.0869 15.7796 26.0869 15.7327C26.2122 15.7327 26.5815 16.1055 26.7196 16.2216C26.7474 16.2045 26.7774 16.1896 26.8074 16.1705C26.68 16.0608 26.5548 15.9585 26.4263 15.8499C26.4798 15.8403 26.5333 15.8286 26.589 15.819C26.5847 15.8051 26.5815 15.7913 26.5815 15.7796C26.6168 15.7455 26.6383 15.7497 26.6896 15.7508C26.6939 15.7263 26.6961 15.6997 26.6993 15.6741C26.7667 15.656 26.8074 15.6848 26.8684 15.7061C26.8738 15.7039 26.8781 15.6997 26.8866 15.6997C26.8566 15.6848 26.8427 15.6656 26.8267 15.639C26.7871 15.6358 26.7474 15.6358 26.71 15.6358C26.6961 15.6102 26.6896 15.5655 26.7143 15.542C26.6383 15.4206 26.6104 15.4419 26.619 15.2832C26.6425 15.2683 26.6704 15.2491 26.6961 15.2332C26.6961 15.2076 26.6961 15.2076 26.6661 15.1405C26.619 15.1884 26.5697 15.1831 26.5034 15.1842C26.4862 15.2193 26.468 15.2491 26.452 15.2832C26.4895 15.3045 26.5258 15.3258 26.5665 15.3461C26.5665 15.3695 26.5697 15.3908 26.573 15.4196C26.4338 15.4739 26.4092 15.4781 26.3546 15.6049C26.4466 15.6283 26.4263 15.6912 26.4316 15.7817C26.3096 15.8605 25.8985 15.5538 26.1512 15.3333C26.0687 15.312 25.9627 15.328 25.8857 15.2832V15.2193C25.9146 15.2001 25.9424 15.1884 25.9756 15.1746C25.8375 15.132 25.7176 15.2268 25.5816 15.2332C24.3944 14.5014 23.1226 13.7441 21.6924 13.6962C23.2853 12.9006 25.0806 12.4511 26.9798 12.4511C27.0333 12.4511 27.0868 12.4511 27.1382 12.4532C27.1371 12.5374 27.1371 12.6205 27.1371 12.7046C27.0718 12.7046 27.0033 12.7046 26.9401 12.7078C27.6777 12.8239 28.4207 12.9443 29.1594 13.0646C31.2127 13.9252 31.2127 13.9252 31.2405 13.9252C31.2212 13.9018 31.2009 13.8847 31.1848 13.8634C31.248 13.8389 31.3144 13.7953 31.3839 13.807C31.4428 13.6856 31.7137 13.7516 31.8132 13.7452C31.78 13.7314 31.749 13.7122 31.7137 13.6962C31.8453 13.6568 31.9899 13.6312 32.129 13.6291C33.5646 14.3204 34.8375 15.296 35.8791 16.4761C35.7828 16.4506 35.559 16.3771 35.286 16.3025C34.3568 16.097 33.4362 16.0331 32.4877 15.9809C31.6794 15.7199 31.6794 15.7199 31.6505 15.6997C31.6462 15.6784 31.6462 15.6635 31.6462 15.6464C31.6794 15.6123 31.7169 15.6123 31.7297 15.5655C31.6612 15.5048 31.6548 15.4196 31.6366 15.3333C31.5606 15.2374 31.4846 15.1469 31.4107 15.0532C31.4032 15.0883 31.4032 15.1245 31.4032 15.1618C31.1945 15.3013 30.3894 15.3631 30.2706 15.5378C30.3669 15.7061 30.4526 15.8499 30.5147 16.0309C29.609 16.1034 28.7044 16.2077 27.8084 16.3675C27.8041 16.3771 27.7987 16.3824 27.7944 16.3877C27.8083 16.408 27.8223 16.4314 27.834 16.4548C28.7247 16.3249 29.6197 16.1896 30.5168 16.1406C30.6742 16.2951 30.9332 16.4921 31.1356 16.5773C31.1784 16.5443 31.2212 16.5049 31.263 16.4666C31.2737 16.2216 31.2737 16.2216 31.2876 16.2035H31.3604C31.4567 16.3483 31.5531 16.4921 31.6505 16.6402C31.6794 16.6103 31.6944 16.6103 31.7361 16.6103C31.7308 16.5688 31.7308 16.5688 31.627 16.3632C31.6387 16.0331 32.2029 16.5773 32.2703 16.6242C32.3035 16.6263 32.3421 16.6306 32.3774 16.637C32.3774 16.5859 32.3828 16.5763 32.4106 16.5358C32.3421 16.4772 32.3421 16.4772 32.3132 16.4357C32.3196 16.4154 32.3282 16.4048 32.3421 16.392C32.4363 16.392 32.5305 16.424 32.6247 16.4463C32.5647 16.3451 32.4416 16.2152 32.4416 16.0948C32.5819 16.0948 32.6846 16.2152 32.7938 16.2152C32.7392 16.1705 32.6846 16.1332 32.6365 16.0948C33.7894 16.1406 34.9413 16.2312 36.029 16.6476C37.7654 18.7001 38.8177 21.3458 38.8177 24.2301ZM27.9989 14.6143C28.0471 14.5792 28.0835 14.5323 28.1445 14.5323C28.183 14.5792 28.183 14.6346 28.1948 14.6942C28.2901 14.707 28.4496 14.6921 28.4924 14.7933C28.5502 14.788 28.5502 14.788 28.5856 14.7698C28.5641 14.7528 28.5502 14.739 28.531 14.7262V14.6782C28.5502 14.6644 28.5641 14.6516 28.5856 14.6399C28.5299 14.6143 28.4721 14.5898 28.4207 14.5621C28.4207 14.543 28.4228 14.5217 28.425 14.5014C28.4849 14.4567 28.6113 14.511 28.683 14.5302C28.6648 14.4972 28.6551 14.4642 28.6391 14.4354C28.3939 14.3672 28.1852 14.4216 27.9518 14.2863C27.9197 14.298 27.8929 14.3108 27.864 14.3236C27.8597 14.3332 27.8597 14.3438 27.8597 14.3534C27.985 14.4386 27.9754 14.4482 27.9989 14.6143ZM27.5686 16.2077C28.1681 15.6997 28.7783 15.2332 29.427 14.788C29.427 14.8306 29.4313 14.8742 29.4366 14.9158C29.9666 14.9946 29.9558 14.9339 30.1967 15.4196C30.413 15.4568 31.0853 15.1735 31.3144 15.1032C31.294 14.9946 31.2737 14.8838 31.2565 14.7773C31.2309 14.7677 31.203 14.756 31.1816 14.7517C31.1645 14.6122 30.9943 14.6016 30.9943 14.4855C31.1698 14.3108 31.173 14.2746 31.173 14.02C30.489 13.7314 29.8028 13.4395 29.1155 13.1541C27.6199 12.9144 25.8814 12.4373 24.3826 13.0327C24.3976 13.0401 24.4137 13.055 24.4297 13.0689V13.1136C24.0583 13.3863 23.5155 13.4086 23.1965 13.7665C23.2179 13.7708 23.2179 13.7708 23.6354 13.627C23.6472 13.6344 23.6632 13.643 23.675 13.6536V13.7101C23.6504 13.726 23.6258 13.7441 23.6044 13.7612C23.7542 13.7314 23.9277 13.6749 24.0807 13.6749C24.1032 13.7015 24.0904 13.7356 24.1182 13.7612C24.2274 13.7708 24.3409 13.7804 24.4511 13.7899C24.4833 13.643 24.7049 13.4086 24.8462 13.5503C24.8997 13.5322 24.9704 13.4811 25.0217 13.5322V13.5769C25.0624 13.5854 25.1213 13.5769 25.1534 13.611C25.1502 13.6312 25.1502 13.6536 25.1502 13.677C25.3568 13.6632 25.5613 13.6536 25.77 13.643C25.7668 13.6206 25.7636 13.5972 25.7636 13.5727C25.7358 13.5673 25.5238 13.4811 25.6534 13.4278V13.4086C25.5581 13.382 25.3996 13.3863 25.3996 13.268C25.4703 13.2297 25.542 13.1892 25.617 13.1541C25.2144 13.0263 25.6427 12.9645 25.8546 12.907C25.8985 12.924 25.8985 12.924 26.1008 13.0731C26.1672 13.087 26.1672 13.087 27.1318 13.1392C27.1318 13.3458 27.1253 13.5503 27.1253 13.7612C27.0269 13.7612 26.9262 13.7708 26.8288 13.7772C27.0129 13.8283 27.0129 13.8283 27.029 13.8432C27.029 13.889 27.029 13.889 27.0129 13.9135C26.9401 13.921 26.8673 13.9252 26.7913 13.9327C26.8288 13.9902 26.8684 14.0445 26.9102 14.0988C26.9508 14.0988 26.9787 14.0701 27.0054 14.0445C27.0472 14.0584 27.075 14.0935 27.12 14.118C27.12 15.2332 27.12 15.2332 27.1061 15.4068C27.059 15.3972 27.0129 15.3908 26.968 15.3833C26.9562 15.3631 26.9444 15.3461 26.9369 15.328C26.8995 15.3482 26.8995 15.3482 26.8963 15.3695C26.9434 15.4206 26.9926 15.4739 27.0429 15.5271C27.0729 15.5197 27.0836 15.5176 27.1061 15.492C27.1071 15.7039 27.1136 15.9095 27.1146 16.1225H27.2163C27.2163 15.5271 27.227 14.9339 27.2313 14.347C27.2527 14.363 27.2731 14.3832 27.2934 14.4024C27.3245 14.3672 27.3641 14.3395 27.3641 14.2927C27.2849 14.2171 27.2292 14.1989 27.2292 14.0882C27.3448 13.9902 27.3866 13.9252 27.5086 14.0296C27.515 14.0211 27.5193 14.02 27.5247 14.0136C27.7837 14.0307 27.9272 14.0584 28.1284 14.2032C28.3682 14.0786 28.3715 13.9976 28.5031 14.2149C28.6048 14.282 28.987 14.282 28.8735 14.4333C29.0245 14.5217 29.1797 14.6143 29.3317 14.707C29.2943 14.7443 29.2943 14.7443 29.032 14.92C28.956 14.8838 28.6391 14.9243 28.517 14.9456C28.6145 15.0649 28.6487 15.0702 28.8061 15.0787C28.6551 15.198 27.4829 16.0139 27.4829 16.1779C27.5461 16.1896 27.5461 16.1896 27.5686 16.2077ZM31.3315 14.2298C31.3176 14.1638 31.3176 14.1638 31.3229 14.0637C31.3379 14.0584 31.3497 14.0498 31.3636 14.0445C31.2844 13.9582 31.2844 13.9582 31.2705 13.9614C31.2737 14.0584 31.278 14.1478 31.2822 14.2394C31.2994 14.2352 31.3144 14.2341 31.3315 14.2298ZM31.2565 14.4972C31.2383 14.4216 31.2383 14.4216 31.2212 14.4109C31.1613 14.462 31.0853 14.4929 31.1656 14.5526C31.1945 14.5121 31.2084 14.4972 31.2565 14.4972ZM23.8848 13.2361C24.009 13.2116 24.145 13.1349 24.2606 13.087C24.2328 13.087 24.2328 13.087 23.8848 13.2361ZM24.8001 13.9902C25.269 14.1244 25.269 14.1244 25.284 14.1414C25.284 14.1883 25.284 14.1883 25.269 14.2117C25.1213 14.2171 24.9736 14.2266 24.8258 14.2298V14.3204C24.9618 14.3204 25.5581 14.2266 25.5581 14.4524C25.7015 14.462 26.0238 14.4258 26.1115 14.543C26.2261 14.543 26.3214 14.4567 26.4466 14.4567C26.4745 14.511 26.5076 14.5685 26.5344 14.6293C26.5665 14.6207 26.5965 14.6079 26.6297 14.5984C26.6222 14.5174 26.6168 14.4386 26.6104 14.3608C26.5815 14.347 26.5815 14.347 26.3578 14.3332C26.073 14.4354 25.8289 14.3257 25.5763 14.184C25.5763 14.118 25.6309 14.0978 25.6309 14.0392C25.6073 14.0296 25.5934 14.02 25.5763 14.0083C25.5731 13.9934 25.5699 13.9806 25.5699 13.9668C25.284 13.8858 25.101 13.9018 24.8087 13.9412C24.8023 13.9561 24.8001 13.971 24.8001 13.9902ZM26.5548 15.0361C26.5976 15.0691 26.6425 15.0691 26.6586 15.1245C26.6736 15.1064 26.6875 15.0841 26.7036 15.067C26.9337 14.9988 26.65 15.0361 26.5548 15.0361ZM26.7592 14.838H26.5612C26.5633 14.8604 26.5633 14.8604 26.5815 14.8838C26.65 14.8614 26.65 14.8614 26.7592 14.8487V14.838ZM26.5815 13.8091C26.6168 13.7974 26.6222 13.7612 26.6383 13.7356C26.5633 13.7399 26.4894 13.7495 26.4156 13.7612C26.468 13.7772 26.5258 13.7942 26.5815 13.8091ZM26.7592 13.9486C26.6222 13.9486 26.5098 13.9561 26.3952 14.0253C26.4466 14.0754 26.4745 14.1436 26.5344 14.1734C26.5794 14.0743 26.6757 14.02 26.7592 13.9486ZM26.7046 14.3694C26.7549 14.4216 26.8352 14.4982 26.8352 14.5739C26.8599 14.5622 26.8845 14.5526 26.9059 14.543C26.9198 14.4833 26.9369 14.4279 26.9027 14.379C26.801 14.3672 26.801 14.3672 26.7046 14.3694ZM26.5012 16.7765C26.5173 16.7403 26.4937 16.7147 26.4862 16.6764C26.392 16.6476 25.7176 17.0215 25.603 17.0726C24.7648 17.5125 23.963 18.0131 23.1365 18.4743C23.1365 18.5243 23.1365 18.5733 23.1408 18.6277C22.9974 18.7331 22.8528 18.8375 22.7115 18.9472C22.6537 19.1783 22.6173 19.2273 22.3904 19.2273C22.1538 19.599 22.1538 19.599 22.1527 19.6225C22.4482 19.7279 22.4482 19.7279 22.4696 19.746C22.764 19.6491 23.2147 18.9792 23.4973 18.7097C23.4994 18.6937 23.5048 18.6745 23.5112 18.6596C23.3806 18.6351 23.386 18.6064 23.2875 18.5499C23.2875 18.5361 23.2875 18.5243 23.295 18.5116C24.3163 17.8714 25.3793 17.227 26.5012 16.7765ZM23.0391 18.5883C23.0445 18.5116 23.0445 18.5116 23.0327 18.47C22.704 18.3273 22.6366 18.5243 22.3037 18.5243C22.2041 18.4615 22.1056 18.4019 22.005 18.3422C21.99 18.4743 21.9943 18.4242 21.8894 18.4242C21.793 18.5318 21.6999 18.6351 21.6035 18.7427C21.4718 18.7587 21.3391 18.7778 21.2074 18.7928C21.0179 18.9568 20.8199 19.1229 20.6315 19.2912C20.8991 19.5309 20.9012 19.1868 21.2053 19.1868C21.2824 19.2401 21.3509 19.2401 21.4408 19.2401C21.4526 19.2145 21.4665 19.1868 21.4783 19.1602C21.4087 19.1315 21.3873 19.1187 21.3873 19.0473C21.7502 18.7928 22.1677 19.0324 22.5113 18.8503C22.5349 18.8471 22.5595 18.8439 22.5809 18.8471C22.5809 18.8471 22.5852 18.8503 22.5873 18.8577C22.3037 19.0612 22.0178 19.2625 21.7202 19.4414C21.6517 19.6001 21.5329 19.6992 21.3873 19.8067C21.3873 19.9292 21.5596 20.1518 21.6228 20.2605C21.5875 20.3265 21.4922 20.3457 21.4718 20.4117C21.6496 20.3574 21.8251 20.3095 22.0028 20.2573C22.1356 20.0123 22.036 19.8738 22.0103 19.6097C22.1399 19.5362 22.2929 19.2156 22.3732 19.0867C22.5948 18.9184 22.8175 18.7523 23.0391 18.5883ZM22.339 18.4296C22.4161 18.4093 22.4921 18.3827 22.5713 18.3656V18.3507C22.4557 18.3465 22.339 18.3465 22.2201 18.3465C22.2576 18.3731 22.2972 18.4019 22.339 18.4296ZM22.3946 16.424C22.385 16.3366 22.4086 16.3366 22.4642 16.278C22.4278 16.2035 22.4021 16.2866 22.4043 16.1449C22.3176 16.1705 22.248 16.2493 22.1677 16.3025C22.1613 16.392 22.1581 16.4857 22.1538 16.5773C22.1784 16.5912 22.2009 16.6029 22.2276 16.6167C22.309 16.5805 22.4567 16.5102 22.4846 16.4272C22.4343 16.4357 22.4343 16.4357 22.3946 16.424ZM21.823 18.3465C21.7127 18.2378 21.6613 18.2517 21.504 18.2474C21.4975 18.2304 21.4922 18.2187 21.49 18.2123C21.4783 18.2101 21.4665 18.2027 21.4558 18.2027C21.4665 18.2559 21.4783 18.3071 21.49 18.3593C21.4783 18.3667 21.4633 18.3795 21.4526 18.3912C21.4354 18.3827 21.4226 18.3806 21.4087 18.3806C21.3787 18.3422 21.3787 18.3422 21.3541 18.2783C21.3434 18.2751 21.3295 18.273 21.3155 18.2709C21.3113 18.2751 21.3006 18.2804 21.2995 18.2911C21.3155 18.3017 21.3337 18.3135 21.3541 18.3273C21.3541 18.4615 21.1057 18.4317 21.004 18.4423C20.9773 18.4924 20.9537 18.5318 20.9537 18.584C21.004 18.6064 21.049 18.6404 21.095 18.6692C21.17 18.6415 21.1999 18.6404 21.2759 18.6404C21.2824 18.6511 21.2866 18.6649 21.2952 18.6831C21.6196 18.6479 21.6035 18.6064 21.823 18.3465ZM20.4506 19.0058C20.6036 18.9909 20.655 18.9749 20.7739 18.8865V18.8631C20.6507 18.8098 20.5426 18.9333 20.4506 19.0058ZM20.6625 17.8224C20.6754 17.7681 20.6882 17.7117 20.7096 17.6542C20.5683 17.6893 20.4859 17.7617 20.3489 17.8171C20.3489 17.8459 20.3489 17.8768 20.3521 17.9108C20.4987 17.8384 20.4859 17.8342 20.6625 17.8224ZM20.3242 19.3764C20.3125 19.3647 20.306 19.3594 20.2985 19.353C20.199 19.353 19.9913 19.5149 19.8468 19.5405C19.8125 19.7098 19.7718 19.8589 19.7076 20.0219C19.7718 20.4075 19.6819 20.4277 19.8607 20.7866C19.8821 20.7802 19.9056 20.7771 19.9313 20.7749C19.8061 20.4447 19.8992 20.1934 19.9463 19.8344C20.1283 19.6906 20.29 19.6182 20.3242 19.3764ZM20.3125 19.0867C20.2354 19.1272 20.169 19.1751 20.0844 19.1751C20.0652 19.1187 20.0684 19.107 20.0909 19.0569C19.9035 19.0324 19.7526 19.1655 19.6102 19.2593C19.5513 19.4521 19.5459 19.468 19.3704 19.5735C19.3672 19.7332 19.3929 19.8174 19.2922 19.9388C19.3468 20.2765 19.3468 20.2765 19.3554 20.4075C19.3179 20.4213 19.2783 20.4437 19.2376 20.4639V20.5214C19.2633 20.5353 19.2922 20.5491 19.319 20.564V20.5843C19.3286 20.5843 19.3468 20.4852 19.3607 20.4671C19.4389 20.4618 19.516 20.4543 19.5984 20.4447C19.6562 20.368 19.6562 20.3681 19.6712 20.3308C19.6123 20.0762 19.6477 19.7002 19.7611 19.468C20.0609 19.3903 20.1615 19.3551 20.3125 19.0867ZM20.1872 18.0802C20.0759 18.0621 19.9677 18.0408 19.8607 18.0195C19.8425 18.0962 19.8275 18.1739 19.8072 18.2559C19.7237 18.2655 19.6937 18.2304 19.6241 18.1771C19.6241 18.2304 19.6241 18.2304 19.6873 18.5648C19.7419 18.5457 19.8007 18.5339 19.8607 18.5201C19.9196 18.3113 20.0309 18.2346 20.1872 18.0802ZM19.6658 18.8332C19.3725 18.7448 19.4079 18.8109 19.3725 18.5755C19.3286 18.6064 19.2922 18.6404 19.2451 18.5957C19.2419 18.5435 19.2387 18.4924 19.2387 18.4413C19.1402 18.4924 19.0396 18.7587 18.9486 18.8631C18.864 18.9014 18.7762 18.9387 18.6906 18.9749C18.5375 19.3274 18.6135 19.5309 18.5889 19.8802C18.6199 19.8994 18.651 19.9228 18.6863 19.9452C18.8212 19.7876 18.9614 19.6331 19.0974 19.4734C19.1852 19.468 19.274 19.468 19.3607 19.4627C19.5866 19.3413 19.5031 19.0665 19.8885 18.9866C19.8885 18.9472 19.789 18.9738 19.7718 18.9738C19.7386 18.9238 19.699 18.879 19.6658 18.8332ZM18.576 18.273C18.4133 18.273 18.3876 18.5116 18.3544 18.6159C18.1767 18.6745 18.0022 18.7342 17.8309 18.7949C17.8095 18.9738 17.6907 19.1102 17.6586 19.2816C17.6704 19.3722 17.6864 19.468 17.7046 19.5554C17.7464 19.5735 17.7903 19.5948 17.8395 19.614C17.8866 19.6033 17.9112 19.5607 17.9316 19.5234C18.3737 19.3913 18.5268 18.65 18.576 18.273ZM18.2774 18.5339C18.2891 18.4743 18.2891 18.4743 18.287 18.4413C18.1489 18.503 18.0536 18.5414 17.9541 18.65C18.0611 18.6064 18.1682 18.5691 18.2774 18.5339ZM17.2946 19.9633C17.4573 19.8675 17.467 19.4627 17.498 19.2923C17.3631 19.32 17.3342 19.3093 17.2668 19.1868C17.1715 19.1868 17.0516 19.3008 16.9724 19.3413C16.9456 19.4627 17.0901 19.7183 17.1394 19.8302C17.2668 19.8515 17.27 19.8398 17.2946 19.9633ZM16.9649 19.6821C16.9317 19.6821 16.9081 19.7034 16.8771 19.7237C16.5848 20.5949 16.2048 21.5759 16.2048 22.51C16.3279 22.6026 16.451 22.6996 16.5752 22.7954C16.5774 22.7922 16.5848 22.7912 16.5902 22.7858C16.618 22.6005 16.6309 22.3939 16.6898 22.216C17.0184 21.8326 17.1993 21.48 17.437 21.0263C17.5184 20.9666 17.6586 20.972 17.7378 20.8836C17.6725 20.564 17.649 20.1998 17.4905 19.9154C17.422 19.9846 17.3514 20.0538 17.2839 20.1263C17.1769 20.1263 17.1993 20.0475 17.1908 19.9484C17.0238 19.9484 17.028 19.8248 16.9649 19.6821ZM16.8407 19.5905C16.8653 19.5703 16.8878 19.55 16.9135 19.5362C16.9049 19.5011 16.8953 19.468 16.8878 19.434H16.875C16.861 19.4883 16.8493 19.5383 16.8407 19.5905ZM16.8535 19.3551C16.8953 19.2795 16.8814 19.2199 16.875 19.1368C16.7904 19.1602 16.7112 19.1868 16.6309 19.2145C16.6063 19.3274 16.5848 19.4467 16.5624 19.565C16.6416 19.4957 16.7444 19.3551 16.8535 19.3551ZM16.4318 19.7237C16.451 19.614 16.4671 19.5053 16.4864 19.3956C16.2562 19.8174 16.0828 20.1976 15.9254 20.6524C15.935 20.7866 15.935 20.7866 15.9993 21.1051C16.1491 20.7984 16.3001 20.4863 16.451 20.1849C16.5013 20.1518 16.5613 20.1976 16.6063 20.2211C16.6534 20.0805 16.6994 19.9388 16.7519 19.795C16.7369 19.7876 16.7283 19.7769 16.7197 19.7737C16.7112 19.7002 16.7369 19.6331 16.7486 19.5554C16.6352 19.5554 16.572 19.8515 16.4318 19.7237ZM16.0217 21.2936C15.8408 21.3171 15.8783 21.038 15.8505 20.8985C15.5967 21.5354 15.4972 22.2831 15.4073 22.9627C15.6877 22.7155 15.6856 22.543 15.767 22.1734H15.8323C15.858 22.2331 15.858 22.2331 15.9265 22.5686C15.9522 22.5568 15.9522 22.5568 16.0903 22.3854C16.2155 21.6696 16.3301 21.0061 16.5517 20.3191C16.5367 20.3095 16.5249 20.2978 16.5185 20.286C16.4671 20.3617 16.4671 20.3617 16.0217 21.2936ZM15.3687 23.345C15.3248 23.982 15.3302 24.6189 15.3666 25.2516C15.4244 25.1014 15.4244 25.1014 15.585 24.8117C15.6396 24.3356 15.4918 23.803 15.3687 23.345ZM15.555 25.0535C15.4019 25.4475 15.2574 25.4603 15.6909 25.6904C15.753 25.8661 15.844 26.0547 15.8665 26.2389C15.783 26.3412 15.6299 26.4647 15.601 26.6C15.6856 26.6948 15.7712 26.796 15.858 26.9004H15.8783C15.9254 26.7374 15.9671 26.4743 16.1952 26.5127C16.3301 26.8482 16.4478 27.0559 16.6726 27.3402C16.6812 27.3275 16.6812 27.3275 16.5013 26.714C16.4971 26.5276 16.4971 26.3476 16.4971 26.1622C16.2241 26.1303 16.1085 25.929 15.9125 25.7426C15.9125 25.487 15.9168 25.2377 15.92 24.9842C15.8633 25.0343 15.8044 25.0854 15.7295 25.0854C15.6963 25.0396 15.6909 24.9842 15.6877 24.9299H15.6642C15.6642 25.0396 15.6963 25.4337 15.6321 25.5168H15.5882C15.5175 25.422 15.555 25.1749 15.555 25.0535ZM15.418 25.6478C15.4372 25.9258 15.4918 26.2006 15.5314 26.4743H15.555C15.585 26.3816 15.6995 26.2826 15.767 26.207C15.676 25.9332 15.676 25.7799 15.418 25.6478ZM15.6995 26.8801C16.2648 28.1274 16.784 29.4012 17.2582 30.6815C17.4509 30.9914 17.6768 31.2843 17.9005 31.5666C18.0408 31.589 18.1789 31.6891 18.3073 31.7572C18.3105 31.754 18.317 31.7487 18.3234 31.7466C18.2281 31.4558 18.1243 31.1757 18.0022 30.8934C17.5248 30.4461 17.0141 29.7421 16.9456 29.0615C17.0141 29.0189 17.1308 29.1115 17.1983 29.1381C17.1993 29.0923 17.2036 29.0487 17.2047 29.005C16.8996 28.9475 16.9274 28.9826 16.9114 28.6791C17.0955 28.1274 17.0206 28.1614 16.7583 27.5884C16.4714 27.2529 16.2947 27.026 16.1352 26.6224C15.9265 26.6415 16.0485 26.9941 15.8944 27.0708C15.8719 27.0559 15.7573 26.9238 15.6995 26.8801ZM19.2569 32.6285C19.0974 32.5241 19.0974 32.5241 19.0663 32.5156C19.1927 32.8586 19.4004 32.9949 19.6723 33.2409C19.6937 33.0876 19.6005 32.9182 19.6712 32.7734C19.5641 32.587 19.5641 32.587 19.531 32.5603C19.5053 32.5603 19.4796 32.5625 19.4539 32.5635C19.4432 32.5976 19.4432 32.5976 19.4186 32.6232C19.3586 32.6168 19.3062 32.5934 19.2569 32.6285ZM18.0568 30.4461C17.9466 30.0467 17.0002 29.3384 17.5002 28.9741C17.4466 28.6887 17.3257 28.5449 17.149 28.3063C17.073 28.5161 17.0141 28.6461 17.0238 28.8655C17.2839 28.9241 17.2839 28.9241 17.301 28.939C17.301 29.0242 17.3139 29.2021 17.2646 29.2638C17.1908 29.2638 17.149 29.2287 17.0848 29.1978C16.9981 29.5461 17.6104 30.3992 17.8984 30.6644C17.9723 30.5675 17.9252 30.5111 18.0568 30.4461ZM17.5376 28.0347C17.5323 28.1029 17.5323 28.1029 17.6136 28.6525C18.0654 29.1648 18.2463 29.4822 18.8308 29.7271C18.9561 29.7005 19.0856 29.6771 19.2152 29.66C19.091 29.5056 18.9636 29.3554 18.8394 29.2084C18.7869 29.1275 18.4808 28.6791 18.5696 28.6439C18.6007 28.3393 18.4165 28.0943 18.2891 27.8227C18.2656 27.2348 18.2656 27.2348 18.257 27.1965C18.2463 27.1965 18.2367 27.2028 18.2281 27.2039C18.0001 27.5937 18.0772 27.7365 17.6639 27.7365C17.6586 27.9218 17.7164 27.9942 17.5376 28.0347ZM18.864 29.8156C18.7141 29.8006 18.5696 29.6771 18.4305 29.6771C18.4808 29.8933 18.5332 30.1138 18.5878 30.3311C18.7698 30.314 18.9539 30.2917 19.1402 30.2704C19.3864 30.0744 19.7611 29.9072 19.7954 29.5823C19.5288 29.4747 19.1627 29.2968 18.9893 29.2255C19.4143 29.7506 19.5406 29.7197 18.864 29.8156ZM18.8019 28.5886C19.2312 28.7739 19.5823 28.9241 20.0384 28.9965C20.1337 28.9826 20.2033 28.9475 20.2943 28.9113C20.306 28.7611 20.2761 28.5971 20.2514 28.4522C20.0983 28.3809 19.9463 28.3063 19.7954 28.2371C19.653 28.2371 19.4614 28.449 19.3404 28.3702C19.259 28.0475 19.1424 27.9537 18.8212 27.9016C18.8116 28.1295 18.8051 28.3574 18.8019 28.5886ZM15.5582 23.5762C15.6299 23.4356 15.6963 23.2992 15.7712 23.165H15.8183C15.9757 23.3738 15.8066 23.7263 15.8815 23.982C15.9554 24.0863 16.0303 24.1939 16.1085 24.2983C16.1641 24.2919 16.1641 24.2919 16.344 24.2355C16.4714 23.9947 16.5966 23.7508 16.7229 23.508C16.6726 22.9627 16.5238 22.8721 16.0903 22.5462C15.8665 22.7954 15.8633 22.7826 15.8023 22.4642C15.7199 22.8114 15.6695 22.8519 15.4126 23.1011C15.4511 23.263 15.495 23.4196 15.5379 23.5847C15.5454 23.5793 15.5507 23.5762 15.5582 23.5762ZM15.7884 24.9608C15.9811 24.8117 15.9993 24.5848 16.0239 24.3537C15.753 23.9724 15.7648 23.9117 15.7488 23.4121C15.5111 23.8712 15.6545 24.2983 15.6963 24.8202C15.7113 24.8202 15.7273 24.8202 15.7434 24.8266C15.767 24.8617 15.767 24.8617 15.7884 24.9608ZM16.8535 25.5466C16.9081 25.3975 16.9606 25.243 17.0141 25.0929C16.9745 24.9331 16.5966 23.7178 16.8064 23.6784C16.8 23.6496 16.7947 23.6262 16.7861 23.6028C16.6555 23.8435 16.5249 24.0906 16.3975 24.3356C16.3204 24.3526 16.2476 24.3665 16.1738 24.3878C16.132 24.62 16.0506 24.8447 16.0164 25.0833V25.7053C16.1363 25.8235 16.2744 26.0259 16.4414 26.0642H16.4864C16.4906 25.897 16.4831 25.3506 16.8535 25.5466ZM17.4231 27.9665C17.4605 27.9303 17.5002 27.9303 17.5548 27.9292C17.5601 27.8483 17.5398 27.6971 17.5933 27.6449C17.6843 27.6385 17.7731 27.6385 17.8631 27.6385C17.9605 27.4681 18.0568 27.2966 18.1553 27.1251C18.2399 27.0772 18.2731 26.5627 18.2891 26.485C18.2795 26.3412 18.2399 26.2006 18.2399 26.0547C18.1821 26.0493 18.1275 26.0429 18.0718 26.0366C17.9583 25.8896 17.9583 25.8896 17.3567 25.0396C17.3075 25.1014 17.2582 25.1674 17.2047 25.2292C17.1533 25.2207 17.1394 25.2122 17.0933 25.1749C17.0238 25.3453 16.9542 25.5168 16.8835 25.6925C16.8204 25.6872 16.8118 25.6755 16.7722 25.6286C16.7112 25.667 16.6512 25.7053 16.5902 25.7511C16.5956 26.0685 16.5966 26.3848 16.602 26.7086C16.6812 26.9845 16.7647 27.2636 16.8471 27.5437C17.0537 28.0038 17.2047 28.2211 17.498 28.6205C17.5002 28.5854 17.5002 28.5854 17.4231 27.9665ZM17.6297 21.3511C17.695 21.2755 17.8748 21.1424 17.7646 21.0284C17.6639 21.1211 17.6393 21.1211 17.5055 21.1211C17.4017 21.3032 17.3042 21.4896 17.2047 21.6803C17.2646 21.6558 17.3214 21.6377 17.377 21.6142C17.4284 21.3693 17.377 21.3511 17.6297 21.3511ZM17.9583 23.6592C17.9583 23.5133 17.8748 22.9658 17.7143 22.9658C17.6704 23.017 17.6275 23.1011 17.5665 23.1309C17.5141 23.1054 17.4702 23.0766 17.4231 23.0372C17.3813 21.8422 17.3813 21.8422 17.3631 21.7239C17.1073 21.8326 16.9617 22.0733 16.7818 22.2831C16.769 22.3151 16.7486 22.7464 16.7369 22.8274C16.7229 22.8316 16.7112 22.838 16.6994 22.8466C16.6769 22.9722 16.9884 23.7455 16.7743 23.7775C16.8279 24.0863 16.9317 24.8798 17.1651 25.0375C17.1886 25.0204 17.1886 25.0204 17.9583 23.6592ZM19.7868 28.1274C20.1101 28.2711 20.381 28.3968 20.7278 28.4565C21.3059 28.2115 20.4152 27.6971 20.2493 27.5628C20.2343 27.1815 20.2033 26.7789 20.1572 26.3966C19.7237 26.1058 19.5984 25.5232 19.4186 25.0662C19.3468 25.0396 19.2783 25.0162 19.2077 24.9927C19.2269 25.0492 19.2387 25.0833 19.2387 25.1344C19.1177 25.1674 18.9721 25.2154 18.849 25.2154C18.7987 25.1344 18.7987 25.1344 18.7141 24.9448C18.7773 24.7382 18.7773 24.7382 18.7762 24.7201C18.6488 24.7478 18.4743 24.4218 18.4187 24.3175C18.3876 24.2919 18.287 24.2504 18.1906 24.1939C18.1211 23.9724 18.7473 23.165 18.7934 23.0915H18.8212C18.8597 23.1416 18.8587 23.1512 18.8587 23.213C18.8394 23.2183 18.8212 23.2215 18.8051 23.2268C18.833 23.296 18.8597 23.3663 18.8886 23.4356C19.1627 23.5218 19.0364 23.5325 19.1488 23.7807C19.2655 23.8435 19.3864 23.9042 19.5053 23.9713C19.8939 23.9862 20.1487 24.3771 20.4934 24.5678C20.6625 24.3175 20.6657 24.2631 20.6507 23.9521C20.6572 23.9479 20.6711 23.9404 20.685 23.9308C20.6411 23.8669 20.6004 23.7988 20.5587 23.7359C20.548 23.7359 20.548 23.7359 20.5126 23.787C19.9485 23.8115 20.0587 23.2854 19.7312 22.9818C19.607 22.9563 19.4614 22.9584 19.4079 22.8284C19.2815 22.8647 19.182 22.7496 19.0942 22.6772C19.107 22.6367 19.107 22.6367 19.2152 22.4834C19.2451 22.4929 19.259 22.4983 19.2794 22.5323C19.2922 22.4748 19.3008 22.4184 19.3104 22.3609C19.2376 22.3002 19.1627 22.2394 19.0942 22.1819C19.0364 21.9604 19.0053 21.9274 18.8051 21.8134C18.5953 21.888 18.606 21.9923 18.5332 22.2C18.545 22.2384 18.5536 22.3055 18.5332 22.3385C18.5471 22.3406 18.5589 22.346 18.5728 22.3513C18.5803 22.2512 18.576 22.2203 18.6863 22.2331C18.7184 22.1628 18.757 22.0967 18.7934 22.0296H18.864C18.8919 22.0701 18.8726 22.1287 18.8726 22.1766C18.9165 22.1691 18.9614 22.1564 19.0053 22.1468C19.0717 22.2149 19.1027 22.3247 19.1317 22.4141C18.7762 22.9222 18.4401 23.4494 18.1157 23.9841C18.0997 23.966 18.0997 23.966 18.0162 23.7594C17.8053 24.1353 17.589 24.5103 17.3813 24.8852C17.3942 24.9214 17.3942 24.9214 18.1211 25.9375C18.1682 25.9418 18.2142 25.9503 18.2634 25.9556C18.3234 25.5328 18.3705 25.0929 18.4604 24.6849H18.53C18.5332 24.85 18.5332 24.85 18.5193 25.1014C18.5696 25.0705 18.6296 24.9991 18.6959 25.0343C18.6863 25.1333 18.651 25.1653 18.5942 25.243C18.6007 25.4028 18.6007 25.4028 18.6906 26.3199C18.6788 26.485 18.6339 26.7821 18.6221 26.927C18.6788 27.2178 18.7377 27.5117 18.7955 27.8004C19.1156 27.8611 19.3329 27.9218 19.4261 28.2711C19.5427 28.2211 19.6605 28.1519 19.7868 28.1274ZM20.9055 27.9665C20.9216 27.9569 21.1036 27.7301 21.1057 27.7045C21.0672 27.7205 20.7739 27.8163 20.7739 27.8547C20.8199 27.8909 20.8627 27.9292 20.9055 27.9665ZM19.1177 25.0705C19.0942 25.0109 19.0685 24.9565 19.0471 24.899C19.0546 24.8798 19.0663 24.8703 19.0717 24.8553C19.2152 24.8873 19.2152 24.8873 19.3543 24.9331C19.3554 24.8798 19.3554 24.8798 19.3404 24.784C19.2633 24.7606 19.1862 24.7318 19.1156 24.7073C19.107 24.6338 19.1006 24.5678 19.0974 24.4985C18.8522 24.6572 18.7762 24.8553 18.8961 25.1163C18.97 25.0993 19.0417 25.0833 19.1177 25.0705ZM19.4079 24.5017C19.3404 24.4985 19.274 24.4985 19.2077 24.4985C19.2077 24.5443 19.2109 24.5933 19.2119 24.6423C19.3062 24.6721 19.4186 24.6785 19.4389 24.784C19.7611 24.5699 19.7697 24.9171 20.0245 24.4847C20.0941 24.457 20.0941 24.457 20.1016 24.44C19.9613 24.3175 19.8275 24.195 19.6915 24.0714C19.2794 24.064 19.5427 24.294 19.4079 24.5017ZM20.2835 25.2526C20.4795 25.0055 20.4591 24.9789 20.4227 24.6487C20.2943 24.572 20.2493 24.5475 20.1016 24.5571C19.8842 24.8873 19.9356 24.8298 19.5192 24.8617C19.4539 25.2004 19.7697 25.684 19.8885 25.9961C19.987 26.0973 20.0866 26.207 20.1872 26.3103H20.2065C20.2129 26.2645 20.2172 26.2592 20.2546 26.2389C20.2761 26.2432 20.2964 26.2517 20.3178 26.2592C20.3242 25.9258 20.2835 25.5881 20.2835 25.2526ZM20.7514 24.032C20.7631 24.1652 20.7332 24.3452 20.8295 24.44C20.8295 24.3292 20.7963 24.1492 20.8627 24.0576C20.9055 24.0576 21.0201 24.1066 21.0351 24.1002C20.8948 23.8637 20.7589 23.6273 20.6229 23.3908C20.624 23.4494 20.6283 23.5048 20.6315 23.5666C20.5523 23.7274 21.0115 24.0054 20.7514 24.032ZM21.1507 24.2919C21.1111 24.211 21.0222 24.211 20.9387 24.1897V24.473C21.4633 24.5678 21.4633 24.5678 21.5179 24.5848H21.5382C21.4922 24.3974 21.6314 24.2749 21.7331 24.1215C21.7331 23.9905 21.7331 23.9905 21.6934 23.5357C21.6378 23.5272 21.641 23.4728 21.5917 23.4526C21.5361 23.5048 21.4783 23.5612 21.4258 23.6188C21.413 23.9713 21.5714 24.3292 21.1507 24.2919ZM22.1056 25.0748C22.0382 25.0769 21.9397 25.0439 21.8968 25.0471C22.1902 25.4689 22.5124 25.7969 22.6013 26.3039C22.6505 26.3284 22.7008 26.3561 22.7501 26.3848C23.0049 26.3092 23.0445 26.1718 23.3025 26.2432C23.2853 25.8363 22.9042 25.6052 22.8229 25.1759C22.7629 25.1344 22.7008 25.0918 22.6452 25.0492C22.6452 24.9065 22.7415 24.9406 22.6184 24.8202C22.4921 24.8266 22.3615 24.8298 22.2309 24.8394C22.1645 24.981 22.1645 24.981 22.1056 25.0748ZM22.5552 26.3923C22.3037 26.3923 22.2309 26.7214 22.1763 26.8918C22.2362 26.9504 22.2951 27.0165 22.3561 27.0782C22.3561 27.2082 22.1677 27.2625 22.1677 27.3637C22.4043 27.4425 22.6452 27.5224 22.886 27.6044C22.8967 27.6001 22.9149 27.5937 22.9321 27.5937C22.9738 27.5277 23.0156 27.4574 23.0562 27.386C23.1954 27.3765 23.1954 27.3765 23.5369 27.3637C23.5862 27.2636 23.6322 27.1656 23.6814 27.0665H23.8731C23.9416 26.9707 23.9437 26.9185 23.9437 26.796C24.0518 26.6501 24.3826 26.7449 24.4993 26.6298C24.0807 26.6224 24.0807 26.6224 24.039 26.6149C24.0208 26.5723 24.0208 26.5723 23.9951 26.3816C23.9148 26.4189 23.8345 26.4615 23.7564 26.502C23.5433 26.436 23.3314 26.3689 23.1215 26.3039C22.9321 26.5127 22.7854 26.5009 22.5552 26.3923ZM22.9738 27.7045C22.7501 27.7045 22.4439 27.5618 22.2276 27.4936C22.3561 27.7759 22.3561 27.7759 22.4439 28.0091C22.4439 28.2317 22.1206 27.9846 22.1206 28.1785C22.3582 28.2584 22.597 28.3425 22.8389 28.4256C22.8807 28.498 22.9749 28.7249 23.0509 28.7462C23.0969 28.6993 23.144 28.6578 23.1901 28.613C23.3132 28.6333 23.4416 28.7164 23.5508 28.7739H23.5722C23.4737 28.3883 23.2468 28.3127 23.5144 28.0091C23.6418 28.0091 23.7339 28.1071 23.8527 28.0858C24.0144 27.9569 24.1728 27.8355 24.3323 27.7088C24.3644 27.6523 24.3227 27.5405 24.3184 27.4713C24.3751 27.4159 24.4297 27.5 24.4693 27.5309C24.4875 27.4936 24.2841 27.2859 24.2552 27.2465C24.2552 27.2103 24.2606 27.1762 24.2638 27.1368C24.4073 26.7086 24.51 26.7448 24.0508 26.8407C24.0465 26.9951 24.009 27.0356 23.9159 27.1656C23.8527 27.1688 23.7949 27.1709 23.7339 27.1762C23.5423 27.6044 23.5926 27.3914 23.1001 27.4862C23.0562 27.5618 23.0156 27.6321 22.9738 27.7045ZM23.1001 28.825C23.1001 28.8868 23.1365 28.9241 23.1686 28.9741C23.2382 28.9826 23.3795 28.9731 23.4331 29.0263C23.4331 29.1083 23.3185 29.1925 23.2372 29.1925C23.2736 29.2617 23.3132 29.3267 23.3538 29.398C23.4234 29.4012 23.4973 29.4044 23.5722 29.4108C23.6044 29.3288 23.6183 29.2617 23.6857 29.2084C23.9833 29.2841 23.8142 29.5099 23.7628 29.7559C23.8045 29.9924 23.8442 30.2267 23.887 30.4642C24.0465 30.8817 24.1803 31.4718 24.5197 31.7572C24.6449 31.6806 24.7702 31.6039 24.8997 31.5261C24.919 31.4718 24.919 31.4718 25.0528 30.6644C25.0699 30.6485 25.0699 30.6485 25.466 30.5313C25.8985 30.2544 26.2454 30.0243 26.5933 29.6505H26.6447C26.6607 29.6877 26.68 29.7389 26.7143 29.7506C26.6993 29.6569 26.4584 28.7803 26.7196 28.7206C26.7196 28.6706 26.7218 28.6205 26.726 28.5736C26.6704 28.5651 26.6704 28.5651 26.6115 28.5758C26.5344 28.694 26.4905 28.7973 26.3492 28.8122C25.8857 28.6343 25.541 28.5161 25.1534 28.22C25.1534 28.1327 25.2262 28.0794 25.2765 28.0091C25.2637 27.9942 25.2637 27.9942 25.0603 27.8728C25.011 27.7897 24.9447 27.5671 25.0046 27.4862H25.1577C25.1534 27.4255 25.1534 27.4255 25.0978 27.2305C25.1449 27.1762 25.2765 27.0665 25.2765 26.9941C25.1577 26.8876 25.0046 26.8034 24.8697 26.7214C24.8612 26.7374 24.858 26.7619 24.8515 26.7821C24.8151 26.7992 24.8151 26.7992 24.4522 26.8673C24.4212 26.9845 24.3891 27.0985 24.3548 27.2135C24.4372 27.3083 24.5796 27.4297 24.5796 27.5565C24.5325 27.5714 24.5325 27.5714 24.4297 27.5767C24.4458 27.6321 24.4458 27.6821 24.4458 27.7397C24.251 27.8909 24.0518 28.0475 23.8613 28.203C23.6846 28.203 23.6215 28.0432 23.4791 28.1838C23.5048 28.3979 23.6632 28.5885 23.6632 28.8058C23.4812 28.9251 23.326 28.6205 23.1001 28.825ZM25.0464 31.7583C25.0324 31.8531 25.0324 31.8531 25.0217 32.1162C25.0399 32.1311 25.0603 32.1481 25.0838 32.1694C25.1331 32.1567 25.1813 32.1524 25.2369 32.1449C25.2423 32.0906 25.2508 32.0374 25.2637 31.9862C25.1909 31.9117 25.1159 31.8339 25.0464 31.7583ZM26.392 28.7281C26.4349 28.6791 26.4894 28.6248 26.5034 28.5523C26.4092 28.5481 26.3203 28.5385 26.2282 28.5374C26.0098 28.3745 25.5238 27.8472 25.2722 28.1881C25.617 28.4671 25.9756 28.5577 26.392 28.7281ZM24.4929 26.7502C24.6727 26.7225 24.6727 26.7225 24.6995 26.7086C24.6813 26.6873 24.661 26.6692 24.6396 26.6458C24.5828 26.6458 24.5389 26.7182 24.4929 26.7502ZM24.5743 26.5095C24.5957 26.3529 24.571 26.3412 24.4576 26.2389C24.4576 26.1899 24.4576 26.1452 24.4608 26.0973C24.3516 26.0834 24.2435 26.0696 24.1375 26.06C23.9277 25.8821 23.9159 25.7607 23.6707 25.8661C23.7392 26.1282 23.7296 26.1122 23.6044 26.3529C23.8409 26.4296 23.8763 26.2549 24.084 26.2549C24.0947 26.3412 24.1043 26.4296 24.1182 26.519C24.2681 26.5159 24.4212 26.5127 24.5743 26.5095ZM24.4993 25.9418C24.5239 25.929 24.5239 25.929 25.0164 25.8502C25.1652 25.7713 25.3194 25.6925 25.4724 25.6158C25.4703 25.6116 25.466 25.6052 25.466 25.5977C25.1738 25.5157 24.9447 25.2835 24.6727 25.471C24.4758 25.5072 24.5882 25.2984 24.2638 25.4401C24.2606 25.4571 24.2552 25.4688 24.2552 25.487C24.3184 25.5818 24.464 25.7202 24.464 25.8459C24.403 25.8842 24.2435 25.8821 24.1707 25.8842C24.1139 25.8299 23.9491 25.635 23.8698 25.635C23.9416 25.8725 24.1996 25.978 24.4265 25.9993H24.4833C24.4875 25.978 24.4929 25.9599 24.4993 25.9418ZM24.1525 25.4965C24.1032 25.5157 24.0465 25.5328 23.9972 25.5519C23.9951 25.5636 23.9908 25.569 23.9876 25.5818C24.0583 25.651 24.1311 25.7202 24.2049 25.7905C24.2435 25.7841 24.2841 25.7841 24.3259 25.7799C24.3045 25.684 24.206 25.5786 24.1525 25.4965ZM24.7766 25.2739C24.9489 25.2388 25.3996 25.4742 25.5816 25.5328H25.603C25.6427 25.0258 25.5238 25.0748 25.9874 24.9757C26.043 24.7265 26.043 24.7265 26.0698 24.669C26.1983 24.6572 26.331 24.6487 26.4584 24.6391C26.4862 24.4336 26.5815 24.4932 26.619 24.3803C26.5965 24.3537 26.573 24.326 26.5548 24.3036C26.3546 24.2919 26.3096 24.211 26.1629 24.0714C26.0623 24.064 25.891 24.0704 25.8289 23.9841C25.7668 23.9841 25.7112 24.0224 25.6651 23.9756C25.5902 23.753 25.5142 23.5325 25.4393 23.3088C25.3996 23.3056 25.3996 23.3056 25.0935 23.3642C25.0624 23.3312 25.0528 23.296 25.0496 23.2556C24.9618 23.2268 24.8783 23.2012 24.7926 23.1746C24.7648 23.0915 24.7327 23.0127 24.7091 22.9318C24.403 22.9222 24.1043 22.9126 23.8045 22.9083C23.7949 23.05 23.8142 23.0649 23.6632 23.0766C23.6504 23.1011 23.6375 23.1267 23.6258 23.1512C23.5947 23.1586 23.5637 23.165 23.5348 23.1693C23.5423 23.2449 23.5455 23.3152 23.554 23.3898C23.4994 23.4228 23.311 23.4228 23.2468 23.3962C23.1365 23.1448 23.1322 23.1948 22.8271 23.1789C22.7929 23.2864 22.7554 23.3962 22.7212 23.508C22.5349 23.6688 22.4803 23.7594 22.5691 24.0437C22.6858 24.0714 22.8025 24.1066 22.9181 24.1396C23.0327 24.1066 23.144 24.0576 23.2618 24.0576C23.3646 24.3665 23.372 24.3249 23.1879 24.5795C23.2211 24.7265 23.4845 24.7435 23.6215 24.7808C23.6632 24.9757 23.7028 25.1674 23.7457 25.3623C23.811 25.3922 23.8559 25.4156 23.9105 25.4635C24.1278 25.438 24.3163 25.2526 24.5282 25.2526C24.6492 25.3666 24.6396 25.3826 24.7766 25.2739ZM22.7693 25.029C22.9417 25.1483 22.9321 25.2292 22.9792 25.438C23.2179 25.7649 23.3924 25.8896 23.4052 26.2879C23.4234 26.2943 23.4416 26.2996 23.4609 26.3103C23.4791 26.3039 23.4973 26.2954 23.5155 26.2943C23.554 26.2229 23.5947 26.1548 23.6354 26.0887C23.5455 25.8235 23.5059 25.8384 23.7746 25.716C23.7746 25.5913 23.7028 25.5466 23.8506 25.5296C23.7885 25.487 23.6857 25.4401 23.6525 25.4124C23.614 25.2239 23.5744 25.0375 23.5369 24.85C23.4084 24.8159 23.2789 24.7787 23.1462 24.7435C23.1365 24.7201 23.128 24.702 23.1183 24.6785C22.7115 24.5241 22.6976 24.6253 22.8271 24.2088C22.7415 24.1897 22.6537 24.1652 22.5691 24.1652C22.4921 24.3484 22.4161 24.5337 22.3443 24.7201C22.4385 24.7201 22.5435 24.7201 22.6484 24.7233C22.8646 24.866 22.7693 24.8756 22.7693 25.029ZM20.2621 22.4088H20.1615C20.1615 22.4695 20.1658 22.5355 20.169 22.5952C20.1893 22.6026 20.2075 22.6122 20.229 22.6186H20.2621V22.4088ZM19.1477 21.9274C19.1477 22.1159 19.2237 22.1606 19.3607 22.2757C19.4335 22.2064 19.6038 22.2096 19.6348 22.1446C19.5352 21.9977 19.4389 21.8517 19.3415 21.7048C19.2698 21.7293 19.1959 21.8656 19.1477 21.9274ZM19.4539 21.038C19.2537 21.1051 19.091 21.4161 19.0225 21.61C19.0663 21.6803 19.1102 21.7484 19.152 21.823C19.2419 21.758 19.2419 21.758 19.3029 21.6973C19.2922 21.6877 19.2794 21.6739 19.2698 21.6664C19.2698 21.4875 19.4025 21.2201 19.4539 21.038ZM19.152 20.8346C19.1156 20.9475 19.0364 21.0976 19.0364 21.2159C19.0471 21.2212 19.061 21.2287 19.0717 21.2372C19.1627 21.2201 19.2976 21.0455 19.3672 20.9762C19.3672 20.8836 19.3276 20.744 19.3243 20.629C19.2815 20.7163 19.2537 20.8175 19.152 20.8346ZM18.4369 22.3385C18.4069 22.4152 18.3962 22.4418 18.3962 22.5185C18.4369 22.4546 18.4701 22.4269 18.4872 22.3513H18.5065C18.5065 22.3406 18.5065 22.3406 18.4369 22.3385ZM18.3213 19.6331C18.3641 19.6033 18.4101 19.5767 18.4561 19.55C18.4743 19.353 18.4872 19.2252 18.5568 19.0431H18.4872C18.3844 19.2071 18.2142 19.419 18.1628 19.5011C18.2367 19.5245 18.2699 19.5735 18.3213 19.6331ZM19.1381 20.5704C19.1317 20.514 19.1317 20.4639 19.1317 20.4117C19.1755 20.3851 19.2119 20.3617 19.2569 20.3446C19.2334 20.1976 19.2109 20.0528 19.1884 19.9037C19.2933 19.8014 19.2633 19.7141 19.2633 19.565C19.2194 19.5703 19.1755 19.5735 19.1317 19.5767C19.0139 19.7183 18.894 19.8547 18.7762 19.9985C18.9122 20.1359 18.6863 20.4437 18.6103 20.564C18.5332 20.9443 18.5193 21.2659 18.2891 21.5759C18.3641 21.562 18.4165 21.4608 18.4636 21.398C18.4872 21.3916 18.5129 21.3895 18.5375 21.3895C18.5696 21.1307 18.6788 20.2775 19.031 20.2775C19.1862 20.5353 19.0192 20.7281 18.924 21.0029C18.8919 21.2659 18.8919 21.4875 18.757 21.7122C18.8833 21.7325 18.924 21.7655 19.031 21.8464H19.0546C18.8672 21.4726 19.0096 21.6803 19.0096 21.3085C18.9807 21.2904 18.9486 21.2755 18.924 21.2574C18.94 21.0913 19.0171 20.9336 19.0663 20.7749C19.1252 20.6897 19.1852 20.743 19.1991 20.6162C19.1755 20.5992 19.1563 20.5843 19.1381 20.5704ZM19.4967 20.9443C19.6444 21.1115 19.4004 21.4012 19.4004 21.6142C19.5096 21.7783 19.6187 21.9465 19.729 22.1106C19.8286 22.0552 19.9313 22.003 20.033 21.9497C20.1358 21.6622 20.2033 21.594 20.0684 21.3256C19.88 21.0859 19.775 20.8292 19.6402 20.5587C19.562 20.5544 19.562 20.5544 19.4689 20.5768C19.4796 20.8612 19.4796 20.8612 19.4967 20.9443ZM20.381 22.3928C20.473 22.4226 20.5705 22.4386 20.6946 22.4983C20.8831 22.4333 21.0704 22.3736 21.262 22.3097C21.1999 22.1691 21.1999 22.1691 21.0222 21.8091C21.0618 21.4566 21.1882 21.3479 20.806 21.2968C20.7578 21.235 20.7578 21.235 20.4752 20.7994C20.3381 20.8175 20.2065 20.8346 20.0727 20.8505C20.0545 20.924 20.0127 20.924 19.9399 20.9411C19.9677 21.1626 20.2761 21.3256 20.2761 21.5887C20.2343 21.7048 20.1455 21.856 20.1455 21.9753C20.2033 22.0104 20.2546 22.0296 20.2943 22.0871C20.169 22.2512 20.3381 22.2458 20.381 22.3928ZM21.2524 21.0913C21.277 20.9666 21.3155 20.5033 21.3541 20.4501C21.0886 20.3191 21.0929 20.6556 20.7888 20.4117C20.6946 20.5065 20.609 20.6034 20.5341 20.7046C20.639 20.8687 20.7578 21.1797 20.9537 21.2255H21.0062C21.0683 21.0348 21.0704 21.0348 21.2524 21.0913ZM21.1271 20.3446C21.0779 20.2275 21.0308 20.1124 20.9848 19.9953C20.913 20.008 20.7171 20.1817 20.7171 20.0219C20.6754 20.0187 20.6358 20.0155 20.594 20.0155C20.4955 19.8547 20.564 19.7226 20.3178 19.6598C20.2279 19.7279 20.1358 19.7993 20.0437 19.8738C19.9431 20.1561 19.9238 20.4831 20.0384 20.76C20.3617 20.7121 20.3617 20.7121 20.4227 20.6897C20.5126 20.5683 20.6454 20.3574 20.7781 20.2903C20.8638 20.3574 21.0286 20.514 21.1271 20.3446ZM21.1421 19.8802C21.1229 19.8919 21.1036 19.9037 21.0811 19.9186C21.0672 20.0155 21.1807 20.2275 21.2192 20.3212C21.2577 20.3265 21.2995 20.335 21.3391 20.3446C21.4012 20.3223 21.4387 20.302 21.4922 20.2573C21.4922 20.1678 21.3455 19.9846 21.2995 19.9037C21.2481 19.9388 21.2481 19.9388 21.1592 20.023C21.1528 19.975 21.1453 19.9271 21.1421 19.8802ZM23.1322 19.2358C23.1462 19.2401 23.1644 19.2465 23.1815 19.2539C23.2382 19.4095 23.3025 19.5639 23.3603 19.7237C23.4652 19.7141 23.5112 19.7141 23.5862 19.6491C23.5765 19.4819 23.5572 19.0058 23.4652 18.9099C23.3399 18.9387 23.2104 19.1315 23.1322 19.2358ZM26.8267 28.6418C26.9616 28.6343 27.1018 28.6248 27.2431 28.6205C27.227 28.613 26.7549 28.3926 26.8267 28.6418ZM28.9988 29.8731C28.7547 29.6771 28.5545 29.9689 28.5438 30.2224C28.7012 30.428 28.7044 30.4578 28.6551 30.7188C28.6851 30.7944 28.6851 30.7944 28.9014 31.1118C28.9924 30.886 29.1808 30.9818 29.3671 31.1384H29.3917C29.3146 30.6644 29.4441 30.6218 29.8713 30.5814C29.8884 30.3098 29.7514 30.2267 29.5747 30.0648C29.3949 30.0925 29.2247 30.2267 29.0416 30.2267C28.9988 30.1287 29.0266 29.986 28.9988 29.8731ZM28.8125 31.1533C28.759 31.0734 28.7044 30.9978 28.6551 30.9179C28.6594 30.9744 28.6594 30.9744 28.7483 31.2258C28.7847 31.197 28.7847 31.197 28.8125 31.1533ZM28.8457 31.2758C28.7922 31.3482 28.7847 31.4026 28.7815 31.4942C28.85 31.2907 28.85 31.2907 28.8457 31.2758ZM28.775 31.6135C28.7301 31.8201 28.7301 31.8201 28.7301 31.8925C28.8382 31.949 28.9249 31.9884 29.048 32.0129C29.0191 31.8925 28.85 31.721 28.775 31.6135ZM29.1369 32.1929C29.2985 32.5156 29.3242 32.5603 29.6679 32.6754C29.7075 32.6732 29.7578 32.669 29.7685 32.6285C29.654 32.4954 29.6411 32.457 29.6336 32.2802C29.4655 32.1449 29.3007 32.0523 29.1369 32.1929ZM29.7514 31.3323C29.7557 31.345 29.9366 31.3621 29.9922 31.3813C30.0083 31.426 30.0083 31.426 30.0126 31.4942C30.0618 31.4409 30.0618 31.4409 30.1111 31.3685C30.353 31.3855 30.4975 31.1214 30.6656 30.9616C30.6217 30.7891 30.5832 30.6218 30.5425 30.4514C30.4451 30.3992 30.353 30.3417 30.2652 30.2917C30.2706 30.3268 30.2706 30.3268 30.3605 30.4823V30.8519C30.3455 30.8775 30.3455 30.8775 29.7514 31.3323ZM30.6014 29.856C30.626 29.855 30.6549 29.8518 30.6827 29.8518C30.7523 29.7644 30.7909 29.709 30.8208 29.6015C30.7384 29.6366 30.4611 29.7527 30.6014 29.856ZM30.2706 30.5313C30.1924 30.5601 30.1924 30.5601 30.0244 30.657C29.5319 30.7188 29.4013 30.69 29.5084 31.1863C29.5619 31.2151 29.5972 31.2396 29.6336 31.2907C29.8392 31.132 30.0447 30.9786 30.2535 30.821C30.2535 30.722 30.2588 30.6282 30.2706 30.5313ZM29.9805 30.5643C30.0554 30.5239 30.125 30.4823 30.2042 30.4461C30.2706 30.2491 29.7075 29.9455 29.5972 29.8784C29.5929 29.8102 29.6336 29.7687 29.6336 29.709C29.4473 29.6015 29.3917 29.5684 29.2836 29.3874C29.2461 29.3895 29.2065 29.398 29.1711 29.4044C29.1808 29.4342 29.1904 29.4747 29.1711 29.5056C29.1219 29.5141 29.0737 29.5195 29.032 29.5248C28.9988 29.5748 28.9763 29.6292 28.9485 29.6824C28.9849 29.7431 29.048 29.7943 29.1058 29.8401C29.1155 29.9317 29.1187 30.0201 29.1251 30.1138C29.2771 30.0509 29.427 29.986 29.5865 29.9508C29.8788 30.2011 29.9259 30.2128 29.9805 30.5643ZM29.8916 29.9583C29.9473 29.7974 30.1967 29.6015 30.1967 29.4534C29.7385 29.1594 29.8488 29.1243 29.3831 29.3331C29.3831 29.5056 29.625 29.6015 29.7514 29.6686C29.7514 29.8837 29.6197 29.7825 29.8916 29.9583ZM31.2244 32.4006C31.3989 32.3164 31.5681 32.2344 31.7426 32.1524C31.856 31.9884 31.9685 31.8243 32.0819 31.6656C32.3175 31.6135 32.3196 31.5666 32.4973 31.4026C32.3828 31.393 32.3485 31.3983 32.2703 31.3216C32.1719 31.3536 32.0231 31.6071 31.9578 31.6944C31.6612 31.8574 31.415 32.1172 31.2244 32.4006ZM27.1981 24.1939C27.0793 24.2536 26.9658 24.3121 26.8524 24.3718V24.3931C27.0868 24.5742 27.1489 24.7669 27.2088 25.0375C27.2677 25.0652 27.2677 25.0652 27.727 25.1983C27.8597 25.2984 27.9914 25.4028 28.1263 25.5115C28.531 25.438 28.8457 25.3506 29.2343 25.5786C29.3874 25.5519 30.095 25.1344 30.095 24.9331C30.0554 24.8617 30.0083 24.7978 30.0083 24.7158C30.1025 24.669 30.2117 24.6626 30.3145 24.6477C30.4376 24.5017 30.5586 24.3537 30.6849 24.211C30.7331 24.1747 30.8208 24.1268 30.838 24.0714C30.7962 24.031 30.7598 23.9905 30.7202 23.95C30.3466 24.0256 30.4012 24.1268 30.3359 23.7029C29.9965 23.7434 29.9066 23.8115 29.625 24.0118C29.4538 24.0704 29.0523 23.966 28.8628 23.95C28.5931 24.1396 28.6316 24.0544 28.4068 23.8179C28.2259 23.7721 28.2259 23.7721 28.122 23.7594C28.0289 23.9149 28.1135 24.1066 28.015 24.2344C27.7366 24.2344 27.469 24.211 27.1981 24.1939ZM32.447 24.1982C32.3913 24.3388 32.3913 24.4794 32.3506 24.6189C32.296 24.6253 32.2436 24.6285 32.189 24.6391C32.1601 24.7882 32.1322 24.9406 32.1001 25.0929C32.2736 25.0833 32.2447 25.2388 32.2447 25.3826C32.4737 25.3165 32.4609 25.3219 32.5316 25.0833C32.2789 24.899 32.401 24.8798 32.5401 24.5848C32.5251 24.2983 32.5251 24.2983 32.5316 24.1897C32.5037 24.1939 32.4737 24.195 32.447 24.1982ZM32.6151 25.1696C32.5048 25.4646 32.5819 25.5967 32.6697 25.897C32.8506 25.7767 32.8709 25.6595 32.9073 25.4571C32.6418 25.1791 32.6418 25.1791 32.6151 25.1696ZM33.3291 30.5462C33.2927 30.5899 33.2584 30.6325 33.2231 30.6772C33.2617 30.6325 33.3056 30.5899 33.3494 30.5505C33.3441 30.5462 33.3387 30.5462 33.3291 30.5462ZM33.2927 25.8331C33.3751 25.9151 33.3891 25.9503 33.4233 26.0642C33.4244 26.06 33.4297 26.06 33.4362 26.06C33.4394 25.9865 33.4437 25.913 33.4469 25.8459C33.3719 25.8065 33.3719 25.8065 33.313 25.7969C33.3056 25.8065 33.2991 25.8203 33.2927 25.8331ZM33.6545 30.2224C33.5057 30.5111 33.5057 30.5111 33.4704 30.5505C33.5229 30.5995 33.5229 30.657 33.5229 30.7283C33.5625 30.7252 33.6021 30.722 33.6471 30.7188C33.6481 30.6154 33.6289 30.4195 33.7884 30.4461C33.8248 30.3865 33.7627 30.3055 33.7381 30.2427C33.7081 30.2331 33.6835 30.2267 33.6545 30.2224ZM33.7648 25.144H33.8248C33.8472 25.1749 33.8697 25.21 33.8976 25.2388C33.9029 25.2377 33.9093 25.2335 33.919 25.2335C33.9789 25.0034 33.7541 24.9842 34.0785 24.899C34.1031 24.8202 34.1256 24.5571 34.2262 24.5571C34.1887 24.2504 34.1031 23.8552 33.8515 23.6688C33.8248 24.0437 34.0485 24.3633 33.843 24.7233C33.8248 24.7233 33.8087 24.7243 33.7894 24.7265C33.8087 24.9065 33.8087 24.9065 33.8087 25.0343C33.5967 25.2004 33.4875 25.2462 33.4137 25.4997C33.5293 25.3826 33.6471 25.2612 33.7648 25.144ZM33.9125 22.8647C33.8836 22.8583 33.8515 22.8508 33.8248 22.8434C33.6931 22.9328 33.6695 22.9243 33.509 22.9083C33.4929 22.9722 33.6085 23.1416 33.6396 23.2044C33.6289 23.2577 33.6181 23.3141 33.6117 23.3727C33.9307 23.213 33.798 23.1672 33.9125 22.8647ZM36.4176 30.3375C36.6178 30.2544 36.7227 30.2011 36.8726 30.0424C36.7998 30.0488 36.7388 30.0509 36.6777 30.0115C36.6777 29.9647 36.6777 29.9647 36.6949 29.9412C36.6082 29.9178 35.7988 30.4078 35.6821 30.4685C35.5526 30.6538 35.4188 30.8349 35.2935 31.0213C35.3985 30.9691 35.558 30.854 35.6747 30.8775C35.7078 30.9371 35.7432 30.9978 35.7774 31.0607C36.0665 30.8732 36.1703 30.5505 36.4176 30.3375ZM35.1319 31.1075C35.1726 31.082 35.21 31.0628 35.255 31.0436C35.1672 31.034 35.1672 31.034 35.0666 31.0394C35.0966 31.0543 35.0966 31.0543 35.1319 31.1075Z" fill="#6B7175"/>
</g>
<path fill-rule="evenodd" clip-rule="evenodd" d="M59.3096 8.25269V21.1297H65.1985L68.5348 13.9188H68.6106V21.1297H73.6529V8.25269H67.7576L64.4276 15.6118H64.3518V8.25269H59.3096Z" fill="#6B7175"/>
<path fill-rule="evenodd" clip-rule="evenodd" d="M83.4203 12.7077H80.0462V8.25269H75.0039V21.1297H80.0462V16.3842H83.4203V21.1297H88.4622V8.25269H83.4203V12.7077Z" fill="#6B7175"/>
<path fill-rule="evenodd" clip-rule="evenodd" d="M89.5635 8.25269V12.0589H94.0055V21.1297H99.0474V12.0589H103.489V8.25269H89.5635Z" fill="#6B7175"/>
<path fill-rule="evenodd" clip-rule="evenodd" d="M104.607 8.25269V21.1297H116.24V18.0958H109.649V16.0877H115.823V13.1465H109.649V11.2866H116.107V8.25269H104.607Z" fill="#6B7175"/>
<path fill-rule="evenodd" clip-rule="evenodd" d="M122.161 11.2309H123.254C124.189 11.2495 124.821 11.4225 125.143 11.75C125.465 12.0774 125.617 12.4359 125.591 12.8313C125.573 13.3442 125.415 13.7149 125.124 13.9435C124.833 14.1722 124.505 14.3143 124.145 14.3637C123.785 14.4194 123.494 14.4379 123.272 14.4317H122.161V11.2309ZM117.251 8.25269V21.1297H122.293V17.4099H125.061C126.419 17.3914 127.513 17.1504 128.34 16.6932C129.162 16.2298 129.762 15.6551 130.129 14.9631C130.495 14.271 130.678 13.5728 130.671 12.8684C130.678 12.0713 130.476 11.3237 130.078 10.6254C129.68 9.9272 129.055 9.35872 128.214 8.92616C127.373 8.48749 126.293 8.26504 124.973 8.25269H117.251Z" fill="#6B7175"/>
<path fill-rule="evenodd" clip-rule="evenodd" d="M140.201 11.2304H141.294C142.229 11.249 142.861 11.4219 143.184 11.7494C143.505 12.0769 143.657 12.4353 143.632 12.8369C143.613 13.3498 143.461 13.7206 143.164 13.9492C142.874 14.1778 142.545 14.3199 142.185 14.3755C141.825 14.4311 141.535 14.4497 141.313 14.4435H140.201V11.2304ZM135.291 8.25215V21.1292H140.334V17.4094H143.101C144.459 17.3909 145.553 17.1499 146.381 16.6865C147.202 16.2231 147.802 15.6484 148.169 14.9563C148.535 14.2643 148.718 13.5661 148.712 12.8617C148.712 12.0646 148.516 11.317 148.112 10.6187C147.713 9.9205 147.095 9.35202 146.248 8.91945C145.407 8.48078 144.327 8.25833 143.007 8.24597H135.291V8.25215Z" fill="#6B7175"/>
<path fill-rule="evenodd" clip-rule="evenodd" d="M154.878 11.3051L156.248 15.34H153.444L154.796 11.3051H154.878ZM151.542 8.25269L146.929 21.1359H151.971L152.856 18.3554H156.811L157.715 21.1359H163.022L158.334 8.25269H151.542Z" fill="#6B7175"/>
<path fill-rule="evenodd" clip-rule="evenodd" d="M169.658 11.1197C170.283 11.1382 170.738 11.3482 171.029 11.7499C171.319 12.1454 171.502 12.6211 171.585 13.1711C171.667 13.721 171.699 14.2277 171.692 14.6973C171.705 15.1669 171.667 15.6735 171.585 16.2235C171.502 16.7734 171.319 17.243 171.029 17.6447C170.738 18.0463 170.277 18.2564 169.658 18.2749C169.032 18.2564 168.578 18.0463 168.287 17.6447C167.996 17.2492 167.813 16.7734 167.731 16.2235C167.654 15.6735 167.617 15.1669 167.623 14.6973C167.611 14.2277 167.648 13.721 167.731 13.1711C167.813 12.6211 167.996 12.1516 168.287 11.7499C168.578 11.3482 169.032 11.1382 169.658 11.1197ZM169.658 8.03015C167.32 8.04868 165.512 8.64804 164.243 9.82206C162.972 10.9961 162.334 12.6211 162.315 14.6911C162.328 16.7672 162.972 18.3862 164.243 19.5602C165.512 20.7342 167.314 21.3335 169.658 21.3521C172.002 21.3335 173.803 20.7342 175.073 19.5602C176.343 18.3862 176.981 16.761 177 14.6911C176.981 12.615 176.343 10.9961 175.073 9.82206C173.803 8.64804 171.996 8.04868 169.658 8.03015Z" fill="#6B7175"/>
<path d="M176.317 26.3035H59.3096V27.6879H176.317V26.3035Z" fill="#6B7175"/>
<path d="M59.5674 33.2745H60.5469V37.806H62.536V33.2745H63.5155V37.806H64.1137V39.9499H63.2389V38.7237H59.5674V33.2745Z" fill="#6B7175"/>
<path d="M67.5534 34.1824H65.7438V35.4005H67.4786V36.3182H65.7438V37.8043H67.5534V38.722H64.7344V33.2728H67.5235L67.5534 34.1824Z" fill="#6B7175"/>
<path d="M69.4831 35.3762H71.6067V33.2728H72.5788V38.722H71.6067V36.2857H69.4831V38.722H68.4736V33.2728H69.4532L69.4831 35.3762Z" fill="#6B7175"/>
<path d="M75.3082 34.1824V38.722H74.3362V34.1824H73.207V33.2728H76.4374V34.1824H75.3082Z" fill="#6B7175"/>
<path d="M78.5232 33.2717C78.9974 33.2157 79.4727 33.3645 79.8467 33.6859C80.1551 34.0164 80.3366 34.4618 80.3547 34.932C80.3727 35.4021 80.2259 35.8623 79.944 36.2196C79.7724 36.3878 79.5714 36.5168 79.3531 36.5991C79.1347 36.6815 78.9034 36.7153 78.6727 36.6987H78.0372V38.7209H77.0576V33.2717H78.5232ZM78.0372 35.7892H78.4335C78.6605 35.8134 78.8881 35.7502 79.0766 35.6105C79.162 35.5333 79.2305 35.4364 79.277 35.3268C79.3236 35.2172 79.347 35.0977 79.3458 34.9771C79.3484 34.8577 79.3247 34.7394 79.2766 34.6319C79.2284 34.5246 79.1573 34.4312 79.0691 34.3599C78.861 34.2207 78.6172 34.1581 78.3737 34.1813H78.0372V35.7892Z" fill="#6B7175"/>
<path d="M83.4282 33.2728L84.7069 36.0177L85.7763 33.2728H86.8451L84.52 38.722H83.4282L84.1311 37.2034L82.2617 33.2728H83.4282Z" fill="#6B7175"/>
<path d="M91.406 33.2728V38.722H90.4265V34.1824H88.4072V38.722H87.4277V33.2728H91.406Z" fill="#6B7175"/>
<path d="M94.016 33.2717C94.49 33.2157 94.9648 33.3645 95.3393 33.6859C95.6473 34.0164 95.8294 34.4618 95.8473 34.932C95.8652 35.4021 95.7188 35.8623 95.4363 36.2196C95.2644 36.3878 95.0635 36.5168 94.8457 36.5991C94.627 36.6815 94.3955 36.7153 94.1649 36.6987H93.5293V38.7209H92.5498V33.2717H94.016ZM93.5293 35.7892H93.896C94.1232 35.8134 94.3504 35.7502 94.5394 35.6105C94.6244 35.5333 94.6925 35.4364 94.7393 35.3268C94.7861 35.2172 94.81 35.0977 94.8083 34.9771C94.8108 34.8577 94.787 34.7394 94.7393 34.6319C94.6908 34.5246 94.6202 34.4312 94.5317 34.3599C94.3402 34.2337 94.1198 34.1716 93.896 34.1813H93.5599L93.5293 35.7892Z" fill="#6B7175"/>
<path d="M99.228 37.5761H97.201L96.7602 38.7211H95.6982L97.8742 33.1583H98.6221L100.738 38.7211H99.6841L99.228 37.5761ZM98.9362 36.7153L98.2333 34.75L97.4853 36.7153H98.9362Z" fill="#6B7175"/>
<path d="M102.555 33.272C102.987 33.2369 103.418 33.3568 103.781 33.6131C103.933 33.7507 104.055 33.9237 104.135 34.1191C104.217 34.3145 104.257 34.5273 104.253 34.7419C104.259 34.9601 104.209 35.176 104.109 35.3654C104.009 35.5547 103.861 35.7099 103.684 35.8138C103.93 35.8524 104.16 35.9714 104.342 36.1549C104.463 36.2904 104.557 36.4509 104.618 36.6267C104.68 36.8025 104.708 36.9901 104.701 37.1781C104.706 37.3843 104.669 37.5891 104.596 37.7793C104.523 37.9696 104.414 38.1409 104.275 38.2825C103.913 38.5954 103.458 38.7516 102.997 38.7211H101.314V33.272H102.555ZM102.294 35.5377H102.57C102.664 35.5503 102.759 35.5413 102.849 35.5112C102.938 35.4811 103.021 35.4306 103.092 35.363C103.163 35.2956 103.22 35.2124 103.259 35.1193C103.297 35.0263 103.318 34.9253 103.318 34.823C103.318 34.3196 102.959 34.1328 102.57 34.1328H102.286L102.294 35.5377ZM102.294 37.8522H102.713C102.945 37.8671 103.176 37.8167 103.386 37.706C103.484 37.641 103.564 37.5486 103.617 37.4387C103.671 37.3288 103.697 37.2052 103.692 37.0806C103.695 36.9485 103.663 36.8182 103.598 36.7066C103.532 36.5951 103.438 36.5075 103.325 36.4554C103.111 36.3689 102.881 36.333 102.652 36.3498H102.294V37.8522Z" fill="#6B7175"/>
<path d="M109.509 33.2728V38.722H108.53V34.1824H107.071V36.6187C107.115 36.9458 107.087 37.2793 106.993 37.5934C106.898 37.9075 106.738 38.1936 106.526 38.4297C106.242 38.677 105.887 38.8039 105.523 38.7869C105.385 38.7873 105.248 38.7709 105.112 38.7382V37.8043C105.202 37.835 105.295 37.8514 105.389 37.8531C105.472 37.8553 105.555 37.8391 105.631 37.8056C105.709 37.7721 105.779 37.722 105.837 37.6581C106.069 37.287 106.16 36.8334 106.092 36.3913V33.2728H109.509Z" fill="#6B7175"/>
<path d="M113.441 34.1824H111.632V35.4005H113.337V36.3182H111.609V37.8043H113.419V38.722H110.63V33.2728H113.419L113.441 34.1824Z" fill="#6B7175"/>
<path d="M115.371 35.3762H117.487V33.2728H118.467V38.722H117.487V36.2857H115.371V38.722H114.392V33.2728H115.371V35.3762Z" fill="#6B7175"/>
<path d="M120.6 33.2718V36.9344L123.367 33.15H124.048V38.721H123.061V35.0422L120.286 38.8266H119.613V33.2718H120.6Z" fill="#6B7175"/>
<path d="M128.295 38.7216H127.316V36.6182H127.136L125.858 38.7297H124.684L126.179 36.5208C125.983 36.4844 125.797 36.4012 125.633 36.2771C125.449 36.1235 125.3 35.9238 125.201 35.6948C125.102 35.4658 125.055 35.2143 125.065 34.9616C125.058 34.7234 125.099 34.4865 125.186 34.2676C125.272 34.0486 125.402 33.853 125.566 33.6947C125.93 33.3843 126.391 33.2362 126.852 33.2805H128.295V38.7216ZM127.017 34.1333C126.837 34.1333 126.067 34.1333 126.067 34.9454C126.067 35.7574 126.814 35.7574 127.031 35.7574H127.316V34.1333H127.017Z" fill="#6B7175"/>
<path d="M131.329 33.7843C131.749 33.3616 132.305 33.1343 132.877 33.1509C133.893 33.1509 134.522 33.7112 134.522 34.5721C134.526 34.8076 134.47 35.0398 134.361 35.2432C134.251 35.4466 134.093 35.6134 133.901 35.7252C134.184 35.8041 134.431 35.9877 134.602 36.2444C134.773 36.501 134.856 36.8143 134.836 37.1301C134.836 38.1696 134.006 38.8437 132.847 38.8437C132.476 38.8698 132.105 38.7881 131.772 38.6068C131.44 38.4255 131.158 38.1513 130.955 37.8123L131.598 37.1545C131.715 37.4089 131.897 37.6209 132.123 37.7651C132.349 37.9093 132.608 37.9792 132.87 37.9666C133.542 37.9666 133.834 37.5687 133.834 37.1545C133.834 36.3912 133.139 36.3424 132.728 36.3424H132.278V35.4004H132.728C133.236 35.4004 133.565 35.1486 133.565 34.7101C133.565 34.2716 133.326 34.0767 132.817 34.0767C132.63 34.0679 132.443 34.1025 132.269 34.1782C132.095 34.2537 131.938 34.3687 131.808 34.5152L131.329 33.7843Z" fill="#6B7175"/>
<path d="M138.715 37.5761H136.689L136.248 38.7211H135.186L137.361 33.1583H138.109L140.218 38.7211H139.171L138.715 37.5761ZM138.431 36.7153L137.721 34.75L136.973 36.7153H138.431Z" fill="#6B7175"/>
<path d="M141.753 35.5711L143.599 33.2728H144.833L142.74 35.8066L144.983 38.7382H143.689L141.902 36.302L141.79 36.4238V38.7464H140.811V33.2728H141.753V35.5711Z" fill="#6B7175"/>
<path d="M146.188 33.2728L147.459 36.0177L148.536 33.2728H149.605L147.28 38.722H146.24L146.935 37.2034L145.073 33.2728H146.188Z" fill="#6B7175"/>
<path d="M154.166 33.2728V38.722H153.186V34.1824H151.175V38.722H150.195V33.2728H154.166Z" fill="#6B7175"/>
<path d="M156.298 35.5711L158.138 33.2728H159.372L157.248 35.8066L159.491 38.7382H158.205L156.425 36.302L156.313 36.4238V38.7464H155.334V33.2728H156.313L156.298 35.5711Z" fill="#6B7175"/>
<path d="M163.079 37.5761H161.053L160.611 38.7211H159.55L161.726 33.1583H162.473L164.582 38.7211H163.527L163.079 37.5761ZM162.795 36.7153L162.085 34.75L161.337 36.7153H162.795Z" fill="#6B7175"/>
<path d="M165.847 33.1664H166.527L167.888 36.7396L169.309 33.1664H169.989L170.827 38.7211H169.832L169.383 35.359L168.007 38.7941H167.738L166.43 35.359L165.922 38.7211H164.935L165.847 33.1664Z" fill="#6B7175"/>
<path d="M172.701 33.2718V36.9344L175.468 33.15H176.149V38.721H175.169V35.0422L172.409 38.8266H171.736V33.2718H172.701Z" fill="#6B7175"/>
</g>
<defs>
<clipPath id="clip0_430_469">
<rect width="177" height="51" fill="white"/>
</clipPath>
</defs>
</svg>
