<svg width="101" height="43" viewBox="0 0 101 43" fill="none" xmlns="http://www.w3.org/2000/svg">
<g clip-path="url(#clip0_430_395)">
<path d="M86.9521 27.0376V16.9691C86.9521 10.5053 84.0106 6.27808 75.7521 6.27808C67.5542 6.27808 64.6152 10.5053 64.6152 16.9691V26.9748C64.6152 30.7125 65.5831 33.6947 67.9459 35.5597C74.4936 34.154 80.7759 32.4395 86.616 30.469C86.8435 29.4147 86.9521 28.2676 86.9521 27.0376ZM80.8821 26.3523C80.8821 30.2055 80.1315 32.5048 75.7521 32.5048C72.06 32.5048 70.6221 30.2055 70.6221 26.2895V17.7146C70.6221 13.7987 72.06 11.5621 75.7521 11.5621C80.1315 11.5621 80.8821 13.7987 80.8821 17.7146V26.3523Z" fill="#6B7175"/>
<path d="M74.1855 37.6708C74.6859 37.7085 75.2065 37.7285 75.7523 37.7285C80.3163 37.7285 83.2527 36.4358 84.9711 34.1917C81.5368 35.4442 77.9256 36.609 74.1855 37.6708Z" fill="#6B7175"/>
<path d="M66.9071 36.8098C55.4619 39.1844 44.5676 40.3166 35.2048 40.3166C18.4906 40.3166 6.65125 36.7044 5.26136 30.0874C4.32634 25.6393 8.26859 20.5587 15.6047 15.6888L13.7372 15.0613C13.7018 15.0487 13.6664 15.0337 13.6311 15.0211C4.25558 20.6415 -0.967906 26.7413 0.146538 32.0429C1.62994 39.1041 13.9849 43 31.2726 43C40.4182 43 50.946 41.9105 61.9717 39.6237C77.5916 36.3831 91.3212 31.3425 100.995 25.7724C91.809 30.1678 80.0176 34.0912 66.9071 36.8098Z" fill="#6B7175"/>
<path d="M56.3757 0C55.5064 0.165674 54.6321 0.341389 53.7577 0.522125C45.5851 2.21652 37.9331 4.40543 31.1074 6.90309C31.3879 7.06626 31.6558 7.23946 31.911 7.42773C39.1006 4.55855 47.397 2.00064 56.3757 0Z" fill="#6B7175"/>
<path d="M29.8886 21.505C32.4536 20.6968 34.3944 18.3346 34.3944 15.104V14.6697C34.3944 9.57399 30.7655 6.27808 24.0081 6.27808C19.0651 6.27808 15.1228 8.51468 13.6849 13.1761C13.4979 13.6732 13.6849 13.9844 14.0615 14.1074L17.5665 15.2872C17.6727 15.3174 17.7763 15.3324 17.8723 15.3324C18.1756 15.3324 18.4257 15.1818 18.5673 14.8505C19.5048 12.5511 20.8821 11.4943 23.8868 11.4943C27.0785 11.4943 28.2662 13.2339 28.2662 15.0362V15.4705C28.2662 17.6468 26.5756 19.0752 23.7604 19.0752H21.3799C21.0034 19.0752 20.9427 19.3237 20.9427 19.5722V23.5509C20.9427 23.7994 21.0691 23.9851 21.3799 23.9851H23.7579C26.6994 23.9851 28.5745 25.539 28.5745 28.3353V28.5211C28.5745 30.946 26.6337 32.4998 23.7579 32.4998C20.503 32.4998 18.9413 31.0087 18.1276 28.7696C17.9936 28.3303 17.7055 28.0768 17.3037 28.0768C17.1369 28.0768 16.9525 28.1195 16.7528 28.2098L13.5005 29.3896C12.9369 29.5754 12.8737 29.9494 13.0001 30.4464C14.064 34.1766 17.1294 37.7813 23.95 37.7813C29.6435 37.7813 34.7735 34.2394 34.7735 28.5839V28.0241C34.7684 24.4897 32.5168 22.2506 29.8886 21.505Z" fill="#6B7175"/>
<path d="M60.7972 27.7831C60.7972 33.3759 56.5415 37.7888 49.9105 37.7888C42.3393 37.7888 38.5234 33.4386 38.5234 26.9748V17.2778C38.5234 11.1253 42.6527 6.27808 49.9105 6.27808C56.9181 6.27808 58.9827 10.3798 59.7964 12.4306C59.9834 12.9904 59.6094 13.2389 59.1697 13.4247L55.3538 14.73C54.9166 14.9157 54.6665 14.6672 54.3531 14.0472C53.7896 12.6189 52.4123 11.5621 49.9737 11.5621C46.5949 11.5621 44.5935 13.4272 44.5935 17.4034V18.9572L44.6567 19.0199C46.0946 17.7146 47.909 16.7833 50.9137 16.7833C56.8574 16.7833 60.7997 20.5738 60.7997 26.789L60.7972 27.7831ZM54.7903 27.0376C54.7903 23.8069 52.9127 21.6306 49.8473 21.6306C46.5949 21.6306 44.591 23.7442 44.591 27.0376V27.3488C44.591 30.3937 46.4054 32.5073 49.9105 32.5073C52.9758 32.5073 54.7903 30.331 54.7903 27.3488V27.0376Z" fill="#6B7175"/>
</g>
<defs>
<clipPath id="clip0_430_395">
<rect width="101" height="43" fill="white"/>
</clipPath>
</defs>
</svg>
