<svg width="157" height="41" viewBox="0 0 157 41" fill="none" xmlns="http://www.w3.org/2000/svg">
<path fill-rule="evenodd" clip-rule="evenodd" d="M11.3501 40.6066H30.6019C36.3613 40.6066 41.0731 35.8973 41.0731 30.1411V10.8349C41.0731 5.07956 36.3613 0.369385 30.6019 0.369385H11.3501C5.59063 0.369385 0.878906 5.07862 0.878906 10.8349V30.1411C0.878906 35.8973 5.59063 40.6066 11.3501 40.6066ZM33.8846 17.5778V28.4532C33.8846 31.1975 31.6648 33.4216 28.9252 33.4216H13.0259C10.2873 33.4216 8.06652 31.1975 8.06652 28.4532V17.5778L20.9506 23.399L33.8846 17.5778ZM121.376 18.9707V21.699C121.376 26.264 125.107 29.9987 129.667 29.9987C134.227 29.9987 137.958 26.264 137.958 21.699V18.9707C137.958 14.4056 134.228 10.6699 129.667 10.6699C125.107 10.6699 121.376 14.4047 121.376 18.9707ZM124.593 21.7075V18.9736C124.593 16.1793 126.877 13.893 129.667 13.893C132.458 13.893 134.742 16.1793 134.742 18.9736V21.7075C134.742 24.5017 132.458 26.788 129.667 26.788C126.876 26.788 124.593 24.5017 124.593 21.7075ZM153.7 12.5981V23.9099L143.152 11.5577C142.215 10.4334 140.318 11.1082 140.327 12.5981V28.2252C140.403 30.3494 143.455 30.357 143.534 28.2252V16.904L154.017 29.1808C154.91 30.4088 156.914 29.7689 156.908 28.2252V12.5981C156.908 11.7122 156.191 10.9922 155.304 10.9922C154.418 10.9922 153.7 11.7122 153.7 12.5981ZM115.81 12.5981V28.2138C115.81 29.1007 116.53 29.8197 117.415 29.8197C118.301 29.8197 119.02 29.1007 119.02 28.2138V12.5981C119.02 11.7122 118.301 10.9922 117.415 10.9922C116.53 10.9922 115.81 11.7122 115.81 12.5981ZM98.8876 12.5981V28.0537C98.8876 28.9405 99.6059 29.6605 100.492 29.6605H112.172C114.292 29.5869 114.298 26.5232 112.172 26.4478H102.097V12.5972C102.097 11.7113 101.378 10.9913 100.492 10.9913C99.6059 10.9913 98.8876 11.7122 98.8876 12.5981ZM93.2947 12.5981V28.2157C93.2947 29.1035 94.013 29.8226 94.8998 29.8226C95.7857 29.8226 96.5039 29.1035 96.5039 28.2167V12.5981C96.5039 11.7122 95.7857 10.9922 94.8998 10.9922C94.0139 10.9922 93.2947 11.7122 93.2947 12.5981ZM69.5845 11.5756L62.1417 21.2221L54.6991 11.5756C53.7689 10.4296 51.8503 11.0968 51.8578 12.5981V28.2167C51.9341 30.34 54.9861 30.3494 55.0661 28.2167V17.3064L60.8709 24.8306C61.1862 25.2406 61.6616 25.4545 62.1417 25.4536C62.6218 25.4545 63.0963 25.2396 63.4117 24.8306L69.2164 17.3064V28.2167C69.2936 30.3419 72.3447 30.3465 72.4247 28.2167V12.5981C72.4247 11.7122 71.7064 10.9922 70.8205 10.9922C70.3225 10.9922 69.8782 11.2193 69.5845 11.5756ZM81.3727 12.0345L74.5165 27.5711C74.1588 28.3825 74.5269 29.3316 75.3365 29.6887C76.147 30.0468 77.0941 29.6794 77.4518 28.8679L78.9449 25.4969H86.8056L88.2968 28.8642C88.6536 29.6755 89.6016 30.0431 90.4121 29.685C91.2217 29.3269 91.5898 28.3788 91.2321 27.5674L84.342 11.9517C84.067 11.3136 83.4721 11.0017 82.879 11.0017C82.2492 11.0017 81.6213 11.3522 81.3727 12.0345ZM82.8762 16.5807L85.3897 22.2842H80.3616L82.8762 16.5807Z" fill="#6B7175"/>
</svg>
