<svg width="120" height="37" viewBox="0 0 120 37" fill="none" xmlns="http://www.w3.org/2000/svg">
<g clip-path="url(#clip0_430_191)">
<path fill-rule="evenodd" clip-rule="evenodd" d="M10.5194 12.7314H20.43C20.7675 12.7314 21.0387 13.005 21.0387 13.3453V26.3971C21.0387 32.2557 16.3282 37.0066 10.5194 37.0066H0.608667C0.271254 37.0066 0 36.7331 0 36.3928V23.341C0 17.4824 4.71055 12.7314 10.5194 12.7314Z" fill="#1854C4"/>
<path fill-rule="evenodd" clip-rule="evenodd" d="M14.5751 0H24.5718C24.9092 0 25.1804 0.27358 25.1804 0.613886V26.3104C25.1804 32.2157 20.4368 37.0067 14.5817 37.0067H4.57839C4.24098 37.0067 3.96973 36.7331 3.96973 36.3928V10.6963C3.96973 4.78431 8.71997 0 14.5751 0Z" fill="#A7C2F5"/>
<path d="M18.9281 8.48772C20.0925 8.48772 21.032 7.5402 21.032 6.36581C21.032 5.19142 20.0925 4.2439 18.9281 4.2439C17.7637 4.2439 16.8242 5.19142 16.8242 6.36581C16.8242 7.5402 17.7703 8.48772 18.9281 8.48772Z" fill="white"/>
<path fill-rule="evenodd" clip-rule="evenodd" d="M10.5194 12.7314H20.43C20.7675 12.7314 21.0387 13.005 21.0387 13.3453V26.3971C21.0387 32.2557 16.3282 37.0066 10.5194 37.0066H0.608667C0.271254 37.0066 0 36.7331 0 36.3928V23.341C0 17.4824 4.71055 12.7314 10.5194 12.7314Z" fill="#377CFD"/>
<path d="M44.6177 16.5148H39.4705V13.6856C39.4705 13.2585 39.8146 12.9115 40.238 12.9115H43.9032C45.1999 12.9115 46.2453 11.8506 46.2453 10.5494H39.2324C37.8364 10.5494 36.7051 11.6904 36.7051 13.0984V25.5963C38.2267 25.5963 39.4639 24.3485 39.4639 22.8138V18.8836H42.2757C43.5658 18.8769 44.6177 17.816 44.6177 16.5148ZM54.1778 15.0268C53.6419 14.5263 52.7686 13.9458 51.3131 13.9458C49.0637 13.9458 47.7603 15.0535 47.1186 16.6349V25.5896C48.5873 25.5896 49.7782 24.3885 49.7782 22.9072V18.0161C49.7782 16.7817 50.3141 16.3546 51.3131 16.3546C51.9284 16.3546 52.3121 16.5081 52.7686 16.9085L54.1778 15.0268ZM58.498 14.1193H55.8384V25.5896C57.3071 25.5896 58.498 24.3885 58.498 22.9072V14.1193ZM72.8149 19.711C72.8149 16.5882 70.6713 13.9525 66.8606 13.9525C63.6121 13.9525 60.8003 16.1411 60.8003 19.7911C60.8003 23.361 63.6386 25.7765 67.0855 25.7765C68.7461 25.7765 70.1818 25.3227 71.3528 24.4152L69.9965 22.5269C69.2291 23.054 68.3624 23.5077 67.0855 23.5077C65.5506 23.5077 64.0157 22.5736 63.6121 20.792H72.709M63.6121 18.6233C63.9694 17.1153 65.1735 16.2078 66.887 16.2078C68.5013 16.2078 69.6723 17.0619 70.109 18.6233H63.6121ZM85.7226 22.9139V18.8302C85.7226 15.8342 83.6254 13.9458 80.582 13.9458C77.671 13.9458 75.9575 15.3537 75.0577 17.3689V25.5963C76.5264 25.5963 77.7173 24.3952 77.7173 22.9139V18.9036C77.7173 17.3422 78.8685 16.2612 80.4497 16.2612C82.0574 16.2612 83.0564 17.3422 83.0564 18.9036V25.5963C84.5317 25.5963 85.7226 24.3952 85.7226 22.9139ZM94.3101 13.9458C90.883 13.9458 87.9191 16.3346 87.9191 19.8578C87.9191 23.4077 90.883 25.7698 94.3101 25.7698C95.8715 25.7698 97.2741 25.3894 98.3988 24.6888C99.7286 23.8347 100.595 22.4001 100.906 21.2657V8.48755H98.2466V15.5072C97.4593 14.6264 95.8715 13.9458 94.3101 13.9458ZM94.4623 23.4544C92.3386 23.4544 90.678 21.9463 90.678 19.8578C90.678 17.7692 92.3386 16.2612 94.4623 16.2612C96.586 16.2612 98.2466 17.7692 98.2466 19.8578C98.2466 21.9463 96.586 23.4544 94.4623 23.4544ZM106.325 8.48755H103.665V25.5963C105.134 25.5963 106.325 24.3952 106.325 22.9139V8.48755ZM120 14.1193L114.125 27.8517C113.424 29.4865 111.823 30.5474 110.056 30.5474L112.815 24.3552L108.058 14.1126H110.996L114.217 21.2591L117.129 14.1126H120V14.1193Z" fill="#0F1727"/>
<path d="M58.7757 8.84131H57.3466C56.4998 8.84131 55.8184 9.53527 55.8184 10.3827V12.0108H57.2474C58.0942 12.0108 58.7757 11.3169 58.7757 10.4694V8.84131Z" fill="#377CFD"/>
</g>
<defs>
<clipPath id="clip0_430_191">
<rect width="120" height="37" fill="white"/>
</clipPath>
</defs>
</svg>
